<?xml version="1.0" encoding="UTF-8" standalone="no"?>
<!-- Created with Inkscape (http://www.inkscape.org/) -->

<svg
   width="79.401001mm"
   height="68.294258mm"
   viewBox="0 0 79.401001 68.294258"
   version="1.1"
   id="svg5"
   inkscape:version="1.1.2 (0a00cf5339, 2022-02-04)"
   sodipodi:docname="Samnites.svg"
   xmlns:inkscape="http://www.inkscape.org/namespaces/inkscape"
   xmlns:sodipodi="http://sodipodi.sourceforge.net/DTD/sodipodi-0.dtd"
   xmlns="http://www.w3.org/2000/svg"
   xmlns:svg="http://www.w3.org/2000/svg">
  <sodipodi:namedview
     id="namedview7"
     pagecolor="#ffffff"
     bordercolor="#666666"
     borderopacity="1.0"
     inkscape:pageshadow="2"
     inkscape:pageopacity="0.0"
     inkscape:pagecheckerboard="0"
     inkscape:document-units="mm"
     showgrid="false"
     fit-margin-top="0"
     fit-margin-left="0"
     fit-margin-right="0"
     fit-margin-bottom="0"
     inkscape:zoom="1.4022026"
     inkscape:cx="246.75464"
     inkscape:cy="15.33302"
     inkscape:window-width="1920"
     inkscape:window-height="978"
     inkscape:window-x="0"
     inkscape:window-y="39"
     inkscape:window-maximized="1"
     inkscape:current-layer="layer1" />
  <defs
     id="defs2" />
  <g
     inkscape:label="Layer 1"
     inkscape:groupmode="layer"
     id="layer1"
     transform="translate(-39.585055,-144.62022)">
    <path
       style="fill:#000000;stroke-width:0.264583"
       d="m 44.411237,212.67113 c -1.857562,-0.19154 -2.374221,-0.51625 -2.926661,-1.83938 -0.212655,-0.50932 -0.729993,-1.3599 -1.14964,-1.89016 -1.044802,-1.32021 -1.0009,-2.15298 0.15103,-2.86491 0.914274,-0.56506 1.09448,-0.81744 3.319308,-4.64878 2.067717,-3.56079 3.040977,-4.5758 5.291667,-5.51868 3.311141,-1.38714 3.018163,-0.94667 3.405483,-5.11988 l 0.341453,-3.67901 -0.947426,-2.52954 c -1.192138,-3.18291 -1.220529,-4.42654 -0.153677,-6.73148 0.759418,-1.64072 1.057434,-3.53006 0.556817,-3.53006 -0.130314,0 -0.473277,-0.47769 -0.76214,-1.06153 -0.288863,-0.58385 -0.841643,-1.31045 -1.2284,-1.61467 l -0.703193,-0.55314 -0.894107,0.61266 c -0.877504,0.60127 -1.20231,1.36039 -1.20231,2.80998 0,0.36097 -0.495891,2.10819 -1.10198,3.8827 l -1.101981,3.22639 0.715668,1.56323 c 0.707905,1.54626 0.710272,1.57045 0.218233,2.22948 -0.533633,0.71475 -1.265956,1.00733 -2.626445,1.04936 -0.644799,0.0199 -0.964411,-0.14245 -1.30568,-0.66329 -0.396623,-0.60532 -0.414619,-0.90461 -0.147156,-2.4474 0.1676,-0.96675 0.366735,-3.49856 0.442523,-5.62624 0.169765,-4.76598 0.654348,-6.89148 1.862647,-8.17003 0.481339,-0.50932 1.65941,-2.13066 2.617935,-3.60298 0.958525,-1.47231 1.926443,-2.82936 2.150928,-3.01567 0.224485,-0.1863 1.208186,-0.46996 2.186003,-0.63035 1.620642,-0.26583 1.770554,-0.3441 1.695374,-0.88513 -0.04536,-0.32644 -0.612299,-1.51706 -1.259865,-2.64584 -1.12546,-1.96179 -2.105201,-4.51381 -1.836173,-4.78283 0.06984,-0.0698 0.506321,-0.13889 0.969956,-0.15344 0.716013,-0.0225 0.935845,-0.20209 1.459618,-1.19256 0.339155,-0.64135 0.616645,-1.18795 0.616645,-1.21466 0,-0.0267 -0.47625,-0.53442 -1.058333,-1.12824 -0.674714,-0.68831 -1.074738,-1.35093 -1.103591,-1.82804 -0.02489,-0.41161 -0.0585,-0.94307 -0.07469,-1.18103 -0.01619,-0.23796 -0.196526,-0.63399 -0.400751,-0.88006 -0.504363,-0.60772 -0.192397,-0.77466 2.505721,-1.34088 l 2.167286,-0.45482 1.694158,0.81413 c 2.340973,1.12496 3.570421,2.22467 4.444554,3.97554 0.839147,1.68079 1.051877,4.11697 0.574962,6.58443 -0.29814,1.54252 -0.162901,2.22432 0.398475,2.0089 0.205012,-0.0787 0.446022,0.0479 0.535578,0.28129 0.202342,0.5273 0.643614,0.53106 2.597542,0.0221 0.849294,-0.22121 2.094701,-0.44246 2.767568,-0.49166 0.672867,-0.0492 1.55607,-0.22444 1.962668,-0.38943 1.062276,-0.43104 1.648302,-0.53244 4.023228,-0.69609 1.164167,-0.0802 2.473854,-0.20417 2.910417,-0.27545 0.436562,-0.0713 1.210468,-0.1798 1.719791,-0.24119 0.509323,-0.0614 1.352751,-0.19209 1.874288,-0.29048 0.901766,-0.17012 1.008758,-0.10805 2.182812,1.26619 0.679011,0.79479 1.234567,1.56649 1.234567,1.71488 0,0.1484 0.177739,0.41732 0.394975,0.59761 0.217239,0.18029 0.521981,0.81995 0.677207,1.42146 0.155228,0.60151 0.340918,1.29641 0.412646,1.54421 0.153821,0.53141 -3.154317,2.18186 -9.55462,4.76685 -8.190624,3.30807 -9.41225,3.42766 -11.042914,1.08102 l -0.515731,-0.74217 0.146328,1.02938 c 0.08048,0.56616 0.02694,1.25247 -0.118986,1.52513 -0.197129,0.36834 -0.178526,0.47778 0.07238,0.42582 0.258037,-0.0534 0.347874,0.72136 0.380841,3.28451 0.02373,1.84493 0.121122,3.4806 0.21643,3.63481 0.293442,0.4748 -0.387211,5.56949 -0.942294,7.05309 l -0.524624,1.40218 0.578574,1.93504 c 0.318216,1.06427 0.664254,2.0541 0.768974,2.19962 0.335397,0.46607 1.059144,2.85111 1.059144,3.4903 0,0.33986 -0.114371,0.82466 -0.254158,1.07735 -0.482236,0.87172 -1.597925,5.03635 -1.597925,5.96472 0,0.8637 0.05248,0.92351 0.727604,0.82926 0.400182,-0.0559 2.037292,-0.30221 3.638021,-0.5474 4.514376,-0.69151 4.484021,-0.69525 4.57154,0.56285 0.05448,0.78315 0.0039,0.95514 -0.194387,0.66146 -0.230153,-0.34082 -0.268581,-0.33147 -0.272061,0.0661 -0.0021,0.25467 0.174543,0.46303 0.392825,0.46303 0.325099,0 0.396875,0.4574 0.396875,2.52915 0,1.95713 0.0748,2.48243 0.330729,2.32255 0.181901,-0.11364 0.509323,-0.23315 0.727604,-0.26558 0.454385,-0.0675 0.988036,-0.80012 1.634278,-2.24355 l 0.449207,-1.00333 -1.103452,-0.91659 c -1.169872,-0.97176 -1.662015,-1.05783 -0.837198,-0.14642 0.480391,0.53082 0.479814,0.56739 -0.02368,1.50294 l -0.516041,0.95888 -0.167134,-0.77371 c -0.242531,-1.12276 -0.263194,-3.28838 -0.0313,-3.28064 0.109141,0.004 0.732454,0.41141 1.385144,0.90614 l 1.186706,0.8995 0.468149,-1.47818 c 0.257479,-0.81301 0.437838,-1.49977 0.400793,-1.52614 -0.03704,-0.0264 -0.900792,0.0974 -1.919438,0.27499 -1.018646,0.17762 -1.951754,0.23194 -2.073574,0.1207 -0.360063,-0.32877 0.204436,-0.52468 2.45845,-0.8532 1.170766,-0.17064 2.128666,-0.41889 2.128666,-0.55167 0,-0.13277 0.42142,-0.8155 0.936492,-1.51716 0.51507,-0.70167 1.116846,-1.80507 1.337279,-2.452 0.220429,-0.64693 0.801693,-1.64461 1.291693,-2.21706 0.57613,-0.67308 0.981099,-1.50196 1.146172,-2.34596 0.140396,-0.71782 0.435266,-2.0195 0.655267,-2.89262 0.219999,-0.87313 0.602367,-2.69206 0.849702,-4.04206 0.414081,-2.26014 0.416216,-2.53825 0.02696,-3.51109 -0.638905,-1.59678 -0.531291,-2.45166 0.797984,-6.33925 1.308356,-3.8264 2.683618,-6.80411 3.427775,-7.42179 0.426625,-0.35412 2.134777,-0.62461 5.642217,-0.89348 1.53271,-0.11749 1.92437,-0.43372 1.81637,-1.46653 -0.0534,-0.51031 -0.32961,-0.75156 -1.24747,-1.08942 -1.43495,-0.52821 -1.62202,-0.90962 -0.55119,-1.12379 0.74339,-0.14868 1.15818,-0.70321 0.52601,-0.70321 -0.15295,0 -0.45506,-0.42357 -0.67136,-0.94125 -0.47878,-1.14587 -0.30592,-3.33589 0.46309,-5.86734 0.337,-1.10932 3.05715,-3.20389 4.73591,-3.64674 0.67852,-0.17899 1.440885,-0.44139 1.694135,-0.58312 0.69312,-0.38789 2.56259,0.0494 3.11205,0.72797 1.06043,1.30957 0.90629,2.46644 -0.41504,3.11502 -0.80015,0.39275 -0.87053,0.64179 -0.31232,1.10506 0.21499,0.17843 0.59181,1.04053 0.8374,1.91578 l 0.44652,1.59138 1.42281,-0.16722 c 1.30358,-0.15321 1.40174,-0.12812 1.17128,0.29943 -0.35429,0.65727 -1.34923,1.52394 -2.30084,2.00423 -0.65482,0.3305 -0.87003,0.66863 -1.12294,1.76427 -0.17208,0.74547 -0.56913,1.9511 -0.88233,2.67916 -0.45028,1.0467 -0.72659,1.35519 -1.32016,1.4739 -0.41288,0.0826 -0.68381,0.25836 -0.60207,0.39063 0.0817,0.13227 0.53388,0.16821 1.00474,0.0799 0.72502,-0.13601 1.0614,0.002 2.19695,0.89928 0.73747,0.58293 1.83122,1.19192 2.43056,1.35331 0.64561,0.17384 1.0897,0.45101 1.0897,0.6801 0,0.47299 0.0471,0.47316 -1.3073,-0.005 -0.61009,-0.21525 -1.60732,-0.81978 -2.21608,-1.3434 -0.98151,-0.84426 -1.22291,-0.9338 -2.13215,-0.79084 -1.5581,0.24498 -1.978955,0.57323 -2.139725,1.66893 -0.0798,0.54394 -0.27322,1.69787 -0.42978,2.56429 -0.33075,1.83029 -0.14371,2.09707 1.687065,2.40638 0.96545,0.16311 1.15385,0.10479 1.69539,-0.52479 0.45378,-0.52754 0.60925,-1.03385 0.60925,-1.98406 0,-1.41636 0.60921,-2.30751 1.08568,-1.58813 0.13837,0.20893 0.19062,0.71321 0.11611,1.12062 -0.0846,0.46256 -0.0348,0.67856 0.1325,0.57513 0.1474,-0.0911 0.51186,0.11135 0.80992,0.44987 0.29807,0.33852 0.4538,0.44643 0.34608,0.2398 -0.14334,-0.27497 -0.0778,-0.33039 0.24443,-0.20674 0.24215,0.0929 0.44028,0.0466 0.44028,-0.10294 0,-0.14954 0.12943,-0.1919 0.28763,-0.0941 0.1582,0.0978 0.22365,0.43222 0.14545,0.74322 -0.13314,0.52949 -0.11939,0.53499 0.21614,0.0866 0.38634,-0.51631 0.85381,-0.15893 0.51314,0.3923 -0.10549,0.17068 0.0877,0.11454 0.42937,-0.12476 0.39378,-0.27581 0.72859,-0.34592 0.91464,-0.19152 0.19841,0.16467 0.30754,0.0568 0.33691,-0.33315 0.0239,-0.31719 0.25577,-0.73197 0.51527,-0.92172 0.25951,-0.18976 0.48483,-0.48971 0.50072,-0.66657 0.0159,-0.17686 0.047,-0.48313 0.0692,-0.6806 0.0223,-0.19837 0.21187,-0.2932 0.4237,-0.21191 0.26922,0.10331 0.33462,0.02 0.21962,-0.27968 -0.12175,-0.31728 -0.0674,-0.36868 0.21191,-0.20032 0.32069,0.19332 0.32253,0.16094 0.0126,-0.22118 -0.29668,-0.36574 -0.30095,-0.52258 -0.0234,-0.85706 0.26222,-0.31596 0.38634,-0.33405 0.54381,-0.0793 0.1139,0.1843 0.17299,-0.0731 0.13376,-0.58279 -0.0387,-0.50211 0.10779,-1.32965 0.32543,-1.83897 0.4281,-1.00186 0.42224,-2.31492 -0.0127,-2.84427 -0.47323,-0.57595 -0.65508,-0.37103 -1.1102,1.25103 -0.2441,0.86996 -0.71167,2.03082 -1.03903,2.57968 -1.4507,2.43226 -1.64064,2.71447 -1.82803,2.71605 -0.10914,9.3e-4 -0.19844,-0.12134 -0.19844,-0.2717 0,-0.39051 1.26458,-2.83434 1.56166,-3.01794 0.13684,-0.0846 0.56574,-1.10546 0.95311,-2.26863 0.71997,-2.16188 0.9678,-4.67122 0.56994,-5.77089 -0.20306,-0.56124 -0.15663,-0.60767 0.52916,-0.52917 0.54567,0.0625 0.86055,0.31935 1.14863,0.9371 0.27277,0.58491 0.53314,0.80957 0.83264,0.71842 0.52525,-0.15985 1.54663,1.3521 1.55255,2.29822 0.004,0.58224 0.0734,0.54964 0.9161,-0.42811 0.5017,-0.58208 0.90725,-1.17739 0.90122,-1.32291 -0.006,-0.14552 -0.071,-0.11576 -0.14441,0.0661 -0.0734,0.1819 -0.25533,0.33073 -0.40429,0.33073 -0.14896,0 -0.20298,-0.17685 -0.12003,-0.39301 0.12515,-0.32615 0.0645,-0.3391 -0.35654,-0.0762 -0.5926,0.37009 -1.03835,0.0765 -0.57991,-0.38191 0.17219,-0.1722 0.30554,-0.49763 0.29631,-0.72319 -0.0103,-0.25157 -0.10927,-0.17997 -0.25605,0.18521 -0.30129,0.74958 -0.7855,0.77474 -0.7855,0.0408 0,-0.84254 0.84562,-2.09428 1.53101,-2.26631 0.85928,-0.21566 0.9678,0.0117 0.48594,1.01837 l -0.41951,0.87638 0.77118,-0.89495 c 0.52838,-0.6132 0.91069,-0.84143 1.21432,-0.72491 0.40945,0.15712 0.41073,0.21952 0.0167,0.82084 -0.3339,0.5096 -0.34593,0.61991 -0.0554,0.50844 0.52323,-0.20078 0.76517,0.31553 0.43604,0.93052 -0.18427,0.34431 -0.18838,0.57367 -0.0122,0.68254 0.65095,0.40231 0.22628,1.17327 -0.97378,1.76782 -1.85397,0.91852 -3.20204,2.47309 -3.40028,3.92116 -0.22652,1.65468 -1.13139,4.66394 -1.82985,6.08541 -0.32176,0.65485 -0.66394,1.50599 -0.76039,1.89144 -0.1449,0.57902 -0.4082,0.75666 -1.51517,1.02222 -1.40875,0.33796 -1.65165,0.31094 -4.6119,-0.51294 -1.01601,-0.28277 -1.85876,-0.49213 -1.8728,-0.46524 -0.014,0.0269 -0.32888,0.46562 -0.69965,0.97494 -0.37078,0.50932 -0.82232,1.40229 -1.00344,1.98437 -0.18111,0.58209 -0.41191,1.14939 -0.51289,1.26067 -0.10098,0.11129 -0.0967,0.93907 0.009,1.83952 0.14549,1.23397 0.10084,1.76881 -0.18131,2.17164 -0.20591,0.29395 -0.37437,0.74609 -0.37437,1.00476 0,0.25866 -0.13982,0.47029 -0.3107,0.47029 -0.17089,0 -0.0464,0.28135 0.27666,0.62522 0.32305,0.34387 0.56115,0.73083 0.52911,0.8599 -0.032,0.12907 0.10048,0.56161 0.29449,0.9612 0.30148,0.62097 0.29385,0.79396 -0.0525,1.19063 -0.36766,0.42102 -0.32694,0.65741 0.43881,2.54715 0.46425,1.14568 1.08545,2.3363 1.38045,2.64583 1.07823,1.13132 1.20819,1.48163 2.56444,6.91278 1.28548,5.14772 2.98212,9.07892 4.45642,10.32572 0.48065,0.40649 1.49899,1.02642 2.26297,1.37763 1.319,0.60635 1.72017,1.15766 1.1147,1.53186 -0.15091,0.0933 -2.00428,0.0839 -4.1186,-0.0208 -4.16339,-0.20622 -4.73846,-0.41119 -4.44409,-1.58402 0.10185,-0.40581 0.007,-0.78718 -0.26435,-1.0581 -0.23298,-0.23296 -0.42359,-0.57925 -0.42359,-0.7695 0,-0.46239 -1.69483,-3.25614 -2.48822,-4.10156 -0.78269,-0.83403 -1.74512,-2.62476 -1.74512,-3.24703 0,-0.25526 -0.23806,-1.09046 -0.529035,-1.856 -0.29097,-0.76555 -0.52909,-1.63323 -0.52917,-1.92819 -2.6e-4,-1.21051 -3.13881,-4.53027 -3.59108,-3.79847 -0.10104,0.16348 -0.29838,0.14484 -0.53365,-0.0504 -0.2684,-0.22275 -0.37332,-0.22636 -0.37332,-0.0128 0,0.16333 -0.16867,0.29698 -0.37482,0.29698 -0.20616,0 -0.41452,0.0936 -0.46303,0.20799 -0.19929,0.47001 -1.85563,1.41784 -2.22799,1.27495 -0.22067,-0.0847 -0.33565,-0.0479 -0.2555,0.0818 0.12971,0.20988 -1.16691,0.8165 -1.74522,0.8165 -0.12381,0 -0.2251,-0.33981 -0.2251,-0.75512 0,-0.42605 -0.27116,-1.0477 -0.622249,-1.42652 l -0.622239,-0.67141 -0.832969,0.77847 c -0.458131,0.42817 -0.832967,0.96253 -0.832967,1.18749 0,0.22496 -0.46855,0.94131 -1.041222,1.5919 -0.572672,0.65059 -1.117915,1.53207 -1.211649,1.95883 -0.234805,1.06907 -1.04888,1.07896 -0.835118,0.0102 0.126172,-0.63085 0.07372,-0.74487 -0.297656,-0.64709 -0.30897,0.0813 -0.457057,0.40549 -0.470657,1.03018 -0.01198,0.55028 -0.247883,1.15422 -0.595312,1.52404 -0.316508,0.33691 -0.575469,0.73144 -0.575469,0.87673 0,0.36133 -1.410383,1.6861 -1.795063,1.6861 -0.301704,0 -1.901627,2.53389 -1.906622,3.01963 -0.0013,0.13283 0.467641,-0.41501 1.042234,-1.21742 1.021842,-1.42698 2.293871,-2.52057 2.588802,-2.22564 0.08141,0.0814 -0.315873,0.66358 -0.882854,1.29371 -2.570321,2.85659 -2.821474,3.29216 -3.007082,5.21513 -0.133869,1.38696 -0.177686,1.45883 -0.934207,1.53239 -0.436562,0.0425 -1.424384,0.32642 -2.19516,0.63105 -1.080707,0.42713 -1.737977,0.51914 -2.872126,0.40209 -0.808895,-0.0835 -1.537052,-0.21813 -1.618131,-0.29921 -0.341749,-0.34175 0.5472,-1.53056 1.837859,-2.4578 1.602812,-1.15151 1.329867,-1.35934 -1.012507,-0.77097 -0.851549,0.2139 -2.203112,0.47349 -3.003476,0.57688 -2.316701,0.29924 -2.621488,0.49442 -1.361544,0.87191 1.419477,0.42528 1.556941,0.73106 0.487355,1.08405 -0.642104,0.21191 -1.445121,0.20855 -2.979,-0.0125 -1.154965,-0.16644 -2.218999,-0.29009 -2.36452,-0.27479 -0.14552,0.0153 -0.908616,0.107 -1.695767,0.20379 -1.940892,0.23866 -2.257548,-0.16021 -1.663473,-2.09534 0.232328,-0.75679 0.428356,-2.23927 0.435619,-3.29442 0.01291,-1.87547 0.215948,-2.41731 0.532308,-1.42055 0.21726,0.68452 0.118284,3.54353 -0.133912,3.86816 -0.113051,0.14552 -0.290403,0.71864 -0.394117,1.2736 l -0.188571,1.00901 1.553957,-0.1623 c 0.952092,-0.0994 2.30202,-0.0144 3.485387,0.21954 1.062287,0.21001 2.175868,0.31791 2.474623,0.23979 0.989896,-0.25887 -1.339158,-0.90658 -3.264728,-0.90792 -2.803047,-0.002 -2.984649,-0.33843 -2.489035,-4.61159 l 0.218228,-1.88154 -0.69203,-0.13229 c -0.380617,-0.0728 -0.69203,-0.0297 -0.69203,0.0956 0,0.12534 -0.09706,0.2279 -0.215679,0.2279 -0.118624,0 -0.169247,-1.0418 -0.112496,-2.31511 0.08702,-1.95248 0.245133,-2.61986 1.009429,-4.26079 1.082144,-2.32334 1.106454,-2.66878 0.244787,-3.47827 -0.363802,-0.34178 -0.661458,-0.49228 -0.661458,-0.33446 0,0.15782 -0.47625,0.88944 -1.058333,1.62583 -0.582084,0.73639 -1.058334,1.43433 -1.058334,1.55098 0,0.55998 -1.800428,2.29481 -2.847278,2.74354 -0.646928,0.27731 -1.478399,0.74188 -1.847714,1.03238 -0.553255,0.43519 -0.746419,0.46972 -1.097099,0.1961 -0.380279,-0.2967 -0.385762,-0.28134 -0.05147,0.14422 0.45529,0.5796 0.119188,0.99119 -1.655436,2.02727 -2.533073,1.47889 -4.630774,2.95992 -4.803099,3.39112 -0.100079,0.25042 -0.242957,1.24266 -0.317505,2.20497 -0.128806,1.66271 -0.09815,1.78434 0.61693,2.4474 0.413861,0.38375 0.902518,0.69773 1.085906,0.69773 0.183388,0 0.333433,0.10449 0.333433,0.23219 0,0.52881 -0.754973,0.70863 -2.304454,0.54886 z m 68.185713,-0.40622 c 0,-0.23041 -0.14883,-0.366 -0.33073,-0.30131 -0.1819,0.0647 -0.74745,-0.0871 -1.25677,-0.33728 -1.49829,-0.736 -2.25052,-0.82219 -3.31046,-0.37932 -0.54155,0.22627 -1.14934,0.34821 -1.35064,0.27097 -0.20129,-0.0773 -0.36599,-0.0189 -0.36599,0.12973 0,0.16156 0.77118,0.259 1.91823,0.24237 1.51396,-0.0219 3.1996,0.25842 4.63021,0.7701 0.0364,0.013 0.0662,-0.16485 0.0662,-0.39526 z m -67.108495,-0.24254 c -0.08376,-0.21828 -0.3114,-0.39687 -0.50586,-0.39687 -0.492982,0 -1.177321,-1.05029 -1.177321,-1.8069 0,-0.79589 -2.508168,-3.25202 -2.910285,-2.8499 -0.46084,0.46084 -0.292758,0.84153 0.736878,1.66897 0.695777,0.55914 1.122997,1.19583 1.399213,2.08527 0.298965,0.96269 0.55922,1.32543 1.048928,1.46196 1.136701,0.31694 1.573109,0.26658 1.408447,-0.16253 z m 28.850699,-0.29603 c 0.42254,-0.20098 0.978347,-0.36542 1.235131,-0.36542 0.655005,0 1.303906,-0.27744 1.303906,-0.55748 0,-0.3006 -1.10172,-0.30565 -1.901005,-0.009 -0.336896,0.12515 -1.059021,0.30914 -1.604724,0.40886 -0.909722,0.16625 -0.992833,0.13084 -0.999943,-0.42599 -0.0073,-0.56934 -0.05991,-0.54991 -0.842197,0.31099 l -0.834441,0.91829 0.643758,0.16929 c 0.797404,0.20969 1.988516,0.0311 2.999515,-0.44982 z m 34.637856,-1.21043 c 0.9636,5.3e-4 0.98995,-0.0219 0.57045,-0.4854 -0.43045,-0.47564 -0.96022,-0.4502 -1.64444,0.0789 -0.18057,0.13964 -0.68659,0.20131 -1.12448,0.13704 -0.4379,-0.0643 -0.79618,-0.0383 -0.79618,0.0578 0,0.4101 0.44693,0.5566 1.18912,0.38977 0.43739,-0.0983 1.24988,-0.17849 1.80553,-0.17817 z m -34.271053,-0.11827 c 0.574278,-0.15384 0.58249,-0.18816 0.157429,-0.65785 -0.246652,-0.27255 -0.56946,-0.49554 -0.717349,-0.49554 -0.337312,0 -1.236596,0.79947 -1.236596,1.09934 0,0.26004 0.923785,0.28783 1.796516,0.054 z m -11.957216,-0.6659 c 0.129686,-0.20984 0.0097,-0.25929 -0.38126,-0.15706 -0.322559,0.0844 -0.57054,0.0258 -0.57054,-0.13472 0,-0.15615 -0.07145,-0.21245 -0.158786,-0.12512 -0.23688,0.23688 0.136766,0.72316 0.555661,0.72316 0.201105,0 0.450821,-0.13782 0.554925,-0.30626 z m 3.202364,0.0571 c 0.698387,-0.13706 2.639013,-0.50029 4.312503,-0.80716 4.21224,-0.77242 4.233333,-0.77759 4.233333,-1.03748 0,-0.13229 -0.42564,-0.13283 -0.992187,-0.001 -1.923241,0.44662 -3.699489,0.19189 -2.750728,-0.39448 0.365752,-0.22599 -0.633952,-6.2416 -1.03727,-6.2416 -0.115477,0 -0.09921,0.38617 0.03616,0.85815 0.13536,0.47198 0.232751,1.33518 0.216421,1.91823 -0.02932,1.04688 -0.03362,1.04197 -0.345173,-0.39513 l -0.315481,-1.45521 -0.448577,0.84676 c -0.61521,1.1613 -0.566635,1.53665 0.278542,2.15232 0.399915,0.29132 0.632431,0.62436 0.516697,0.74009 -0.273026,0.27302 -1.755381,-1.3093 -1.673992,-1.78689 0.03419,-0.20063 0.216366,-0.81924 0.404831,-1.37469 0.188468,-0.55546 0.271269,-1.08132 0.184004,-1.16858 -0.208962,-0.20896 -0.235984,-0.16518 -0.87907,1.42451 l -0.551259,1.36269 1.466397,1.51397 c 1.141958,1.179 1.434542,1.37509 1.32243,0.88627 -0.07918,-0.34524 -0.04458,-0.86582 0.07688,-1.15687 0.15368,-0.36822 0.226507,-0.039 0.239445,1.08238 l 0.0186,1.61154 -1.389062,0.29136 c -0.763985,0.16025 -1.912993,0.37128 -2.553354,0.46896 -1.045154,0.15943 -1.145765,0.12932 -0.983224,-0.29425 0.29667,-0.77311 0.649111,-2.56612 0.699149,-3.55686 0.07856,-1.55542 0.009,-1.99476 -0.400082,-2.52912 -0.358311,-0.46797 -0.366869,-0.43465 -0.09634,0.37519 0.533251,1.5963 0.07602,4.55017 -1.039872,6.71799 -0.129382,0.25135 -0.08036,0.24963 1.450282,-0.0508 z m 11.095044,-1.29053 c 0.197873,-0.77409 0.822391,-2.28552 1.387816,-3.35873 0.565422,-1.07321 1.154864,-2.31509 1.30987,-2.75974 0.155006,-0.44465 0.411274,-0.80846 0.569484,-0.80846 0.202409,0 0.206489,0.15167 0.01376,0.51178 -0.150635,0.28147 -0.273886,0.71277 -0.273886,0.95843 0,0.3754 0.06611,0.3918 0.414322,0.10281 0.227875,-0.18912 0.603461,-0.70971 0.834636,-1.15687 0.389974,-0.75434 0.388715,-0.78681 -0.01744,-0.4499 -0.38634,0.32048 -0.437645,0.2894 -0.436772,-0.26458 0.0016,-1.01582 0.926883,-2.2768 1.813568,-2.47155 0.848061,-0.18626 1.556319,-0.8266 1.251469,-1.13145 -0.10141,-0.10141 -0.267206,-0.062 -0.368433,0.0876 -0.101229,0.14957 -0.60077,0.43358 -1.110093,0.63114 -0.834811,0.32381 -2.614584,1.85391 -2.167898,1.86377 0.100938,0.002 0.04961,0.0915 -0.11406,0.19843 -0.163668,0.10692 -0.846238,1.28928 -1.516816,2.62747 -0.983255,1.96215 -1.317945,2.41407 -1.729216,2.33486 -0.369327,-0.0711 -0.557861,0.0926 -0.683588,0.59349 -0.09548,0.38044 -0.411864,1.02631 -0.703067,1.43527 -0.532733,0.74815 -0.495493,1.52114 0.109675,2.27663 0.52429,0.65451 1.054076,0.19814 1.416677,-1.22036 z m -0.791372,-1.30453 c 0.484791,-1.17917 0.887997,-1.67217 0.887997,-1.08576 0,0.55862 -0.778115,2.07795 -1.064212,2.07795 -0.127437,0 -0.04814,-0.44649 0.176215,-0.99219 z m -11.553303,1.08534 c 0.0032,-0.16705 -0.285423,-0.81658 -0.641465,-1.4434 l -0.647348,-1.13968 -0.278693,0.73302 c -0.412296,1.08442 -0.338842,2.31023 0.172279,2.87502 0.44001,0.4862 0.462376,0.48349 0.920158,-0.11146 0.258052,-0.33538 0.471834,-0.74646 0.475069,-0.9135 z m 43.397556,1.22976 c 0,-0.33454 -0.54067,-0.33454 -1.05833,0 -0.30927,0.19986 -0.23626,0.25738 0.33073,0.26053 0.40018,0.002 0.7276,-0.11501 0.7276,-0.26053 z m -1.38522,-0.59531 c 0.28999,-0.3591 -1.29471,-3.18166 -2.64897,-4.71818 -0.3998,-0.4536 -0.66066,-0.93191 -0.5797,-1.06291 0.081,-0.131 -0.11253,-0.23818 -0.42998,-0.23818 -0.50735,0 -0.53325,0.0532 -0.21405,0.4399 0.31139,0.37723 0.30659,0.42102 -0.0337,0.30736 -0.21828,-0.0729 -0.39687,-0.37067 -0.39687,-0.66172 0,-0.29105 -0.13035,-0.69725 -0.28966,-0.90267 -0.51056,-0.65833 -0.62804,-1.28702 -0.36823,-1.9704 0.29862,-0.78541 1.25369,-1.22241 1.91466,-0.87606 0.81909,0.42921 0.49379,0.0501 -0.54936,-0.64022 -0.5568,-0.36847 -1.20893,-1.0689 -1.44918,-1.55651 l -0.43681,-0.88656 -0.018,1.05834 c -0.01,0.58208 -0.16991,1.41473 -0.35562,1.85032 -0.34422,0.8074 -0.32448,0.93546 0.53043,3.44134 0.19859,0.58209 0.75521,1.47506 1.23695,1.98438 0.48173,0.50932 1.21205,1.54597 1.62292,2.30367 0.78158,1.44132 1.59938,2.45883 1.97622,2.45883 0.12203,0 0.34206,-0.14883 0.48896,-0.33073 z m -1.79449,-1.93023 c -0.19725,-0.50272 -0.45548,-0.91404 -0.57384,-0.91404 -0.11836,0 -0.2152,-0.11906 -0.2152,-0.26458 0,-0.56107 0.42073,-0.21628 0.96937,0.79441 0.31488,0.58005 0.48381,1.10945 0.37541,1.17645 -0.1084,0.067 -0.35848,-0.28951 -0.55574,-0.79224 z m -1.53465,-2.36925 c -0.34801,-0.76379 -0.13637,-0.87511 0.3773,-0.19844 0.40743,0.53673 0.46237,0.8599 0.1462,0.8599 -0.12217,0 -0.35774,-0.29766 -0.5235,-0.66146 z m -41.721275,4.09901 c -0.09063,-0.14663 0.0225,-0.45389 0.2514,-0.68279 0.228897,-0.22889 0.348524,-0.52564 0.265838,-0.65943 -0.08269,-0.13378 -0.02425,-0.24325 0.12986,-0.24325 0.154109,0 0.280198,-0.11532 0.280198,-0.25628 0,-0.14095 -0.208359,-0.18029 -0.463021,-0.0874 -0.4258,0.15528 -0.423887,0.12424 0.02379,-0.38615 0.391881,-0.44678 0.426682,-0.64901 0.178461,-1.03705 -0.294998,-0.46117 -0.301585,-0.4606 -0.15208,0.013 0.102181,0.32372 -0.07407,0.72544 -0.509189,1.16056 -0.643426,0.64342 -0.943205,1.58994 -0.396564,1.25209 0.147895,-0.0914 0.200399,-0.27702 0.116677,-0.41249 -0.08372,-0.13545 -0.02613,-0.24629 0.127977,-0.24629 0.355396,0 0.367345,0.70866 0.01561,0.92604 -0.35173,0.21739 -0.339781,0.92605 0.01562,0.92605 0.154109,0 0.206049,-0.11998 0.115423,-0.26662 z m 45.782125,-1.22965 c -0.8901,-2.67243 -2.35714,-6.07738 -2.98127,-6.91941 -0.48798,-0.65836 -0.81553,-0.85492 -1.32264,-0.79375 -0.83788,0.10106 -1.19891,0.96222 -0.76678,1.82898 0.35952,0.72112 1.59644,0.89909 1.64501,0.2367 0.019,-0.25931 -0.0104,-0.27688 -0.0849,-0.0507 -0.0627,0.19041 -0.37182,0.30947 -0.68693,0.26458 -0.81354,-0.11589 -0.83142,-1.63218 -0.0206,-1.74803 0.74812,-0.10689 0.92945,0.17671 2.16507,3.38621 1.50168,3.90057 2.16762,5.38964 2.33536,5.22191 0.0796,-0.0796 -0.0475,-0.72149 -0.2823,-1.42651 z m -39.65098,0.93994 c 0.921424,-0.16046 1.675318,-0.40369 1.675318,-0.5405 0,-0.31114 -2.37702,-2.87192 -2.665828,-2.87192 -0.116692,0 -0.29522,0.56554 -0.39673,1.25677 -0.101512,0.69122 -0.284453,1.52466 -0.406539,1.85208 -0.258666,0.69372 -0.353999,0.67759 1.793779,0.30357 z m -22.972796,-2.51041 c 0.67057,-0.7164 2.539038,-2.09238 4.505686,-3.31808 1.523369,-0.94943 1.6405,-1.08365 1.216349,-1.3938 -0.258142,-0.18875 -0.396864,-0.46047 -0.308273,-0.60382 0.08859,-0.14334 -0.01228,-0.26062 -0.224162,-0.26062 -0.467215,0 -0.471431,0.0455 -0.06452,0.69711 0.366097,0.58622 0.149269,0.9611 -0.369256,0.63842 -0.191583,-0.11923 -0.622527,-0.18133 -0.957653,-0.13802 -0.335127,0.0433 -0.781611,-0.0642 -0.992188,-0.239 -0.299358,-0.24844 -0.382866,-0.24564 -0.382866,0.0129 0,0.18183 -1.149131,1.45205 -2.553625,2.82271 l -2.553624,2.49211 0.899979,0.92921 0.899978,0.9292 0.205679,-1.03157 c 0.113123,-0.56737 0.418448,-1.25888 0.678499,-1.53671 z m 28.002932,1.13775 c 0.106278,-0.17196 0.004,-0.21331 -0.268708,-0.10866 -0.242152,0.0929 -0.440277,0.0735 -0.440277,-0.0432 0,-0.1167 -0.178594,-0.21218 -0.396875,-0.21218 -0.450966,0 -0.449302,-0.004 -0.247497,0.52238 0.161206,0.4201 1.060929,0.31485 1.353357,-0.15831 z m -7.588152,-0.46386 c 0,-0.62023 -0.106432,-0.78748 -0.46302,-0.72761 -0.29831,0.0501 -0.450898,-0.0813 -0.428941,-0.36927 0.01874,-0.24586 -0.130084,-0.51002 -0.330729,-0.58701 -0.200645,-0.077 -0.36481,-0.0223 -0.36481,0.12155 0,0.30687 1.269489,2.36769 1.458528,2.36769 0.07094,0 0.128972,-0.36241 0.128972,-0.80535 z m -3.490681,-1.18603 c -0.08146,-0.0815 -0.229407,0.0654 -0.328766,0.32632 -0.143586,0.37708 -0.113194,0.40747 0.148112,0.14811 0.180821,-0.17948 0.262115,-0.39297 0.180654,-0.47443 z m 9.950894,0.23371 c 0.252076,-0.65689 -0.02577,-0.74659 -0.362668,-0.11708 -0.162533,0.3037 -0.184901,0.55183 -0.04974,0.55183 0.13507,0 0.320657,-0.19564 0.412412,-0.43475 z m 0.87567,-0.40378 c -0.414507,-0.25618 -0.505164,-0.12475 -0.293833,0.42597 0.136101,0.35467 0.223186,0.37951 0.389138,0.111 0.123704,-0.20016 0.08355,-0.42643 -0.0953,-0.53697 z m -11.653059,-0.005 c -0.08446,-0.21106 -0.147157,-0.14837 -0.159852,0.15985 -0.01149,0.27892 0.05105,0.43519 0.138964,0.34727 0.08792,-0.0879 0.09732,-0.31612 0.02089,-0.50712 z m 2.20051,-0.49516 c 0,-0.29963 -0.119063,-0.4712 -0.264584,-0.38126 -0.14552,0.0899 -0.264583,0.33509 -0.264583,0.54478 0,0.20969 0.119063,0.38126 0.264583,0.38126 0.145521,0 0.264584,-0.24515 0.264584,-0.54478 z m 14.797915,-1.17501 c 0,-0.14552 -0.170156,0.0331 -0.378124,0.39687 -0.207967,0.3638 -0.378124,0.78052 -0.378124,0.92604 0,0.14552 0.170157,-0.0331 0.378124,-0.39687 0.207968,-0.3638 0.378124,-0.78052 0.378124,-0.92604 z m -5.008332,0.0819 c 0,-1.06501 -0.635114,-0.83695 -0.744225,0.26725 -0.06612,0.66912 5.29e-4,0.80567 0.330729,0.67892 0.246779,-0.0947 0.413496,-0.47618 0.413496,-0.94617 z m -10.451663,-0.17075 c -0.189218,-0.18922 -0.92542,0.19235 -0.92542,0.47963 0,0.17414 0.189825,0.15658 0.517134,-0.0478 0.284423,-0.17762 0.468152,-0.37193 0.408286,-0.4318 z m 42.279112,0.22409 c -0.0757,-0.28941 -0.24891,-0.4574 -0.38496,-0.37332 -0.14595,0.0902 -0.12034,0.30589 0.0625,0.52619 0.41736,0.50289 0.48551,0.47058 0.32248,-0.15287 z M 67.791111,201.68 c -0.02257,-0.013 -0.55363,0.0299 -1.180121,0.0953 -1.030177,0.10758 -1.10273,0.16043 -0.7589,0.55279 0.209098,0.23861 0.469226,0.72508 0.578062,1.08104 0.189312,0.61916 0.223962,0.59624 0.799944,-0.52917 0.331134,-0.647 0.583592,-1.187 0.561015,-1.19999 z m 6.826821,2.02628 c 0.08373,-0.13547 0.03122,-0.32109 -0.116676,-0.41249 -0.147894,-0.0914 -0.268898,0.0194 -0.268898,0.2463 0,0.46475 0.158766,0.53318 0.385574,0.16619 z m -28.709559,-1.68843 c -0.0653,-0.0548 -0.46727,0.32835 -0.893271,0.85141 l -0.774547,0.95103 0.893271,-0.85142 c 0.491298,-0.46827 0.839844,-0.89624 0.774547,-0.95102 z m 14.481809,1.09137 c -0.08446,-0.21106 -0.147157,-0.14837 -0.159853,0.15986 -0.01149,0.27891 0.05105,0.43518 0.138965,0.34726 0.08792,-0.0879 0.09732,-0.31612 0.02089,-0.50712 z m -0.646691,-0.16355 c 0.118447,-0.45294 1.264942,-0.68373 3.244075,-0.65301 0.359147,0.006 0.536429,-0.17275 0.551769,-0.555 0.01243,-0.30976 0.117884,-1.72192 0.234339,-3.13814 0.210283,-2.55726 0.207405,-2.57656 -0.419478,-2.81209 -0.425298,-0.15979 -0.66592,-0.13976 -0.737603,0.0614 -0.05851,0.16421 -0.39207,0.56644 -0.741236,0.89387 -0.349165,0.32742 -0.554602,0.59531 -0.456526,0.59531 0.09808,0 0.02257,0.18767 -0.167792,0.41704 -0.286843,0.34562 -0.281063,0.4582 0.03375,0.65741 0.255846,0.16189 0.273532,0.24168 0.05417,0.24441 -0.179128,0.002 -0.400395,0.30171 -0.491704,0.66551 -0.09131,0.36381 -0.261024,0.66146 -0.377145,0.66146 -0.116122,0 -0.148859,0.23813 -0.07275,0.52917 0.08664,0.33129 0.0081,0.52917 -0.209979,0.52917 -0.270946,0 -0.277803,0.0705 -0.03086,0.3175 0.174625,0.17462 0.3175,0.47228 0.3175,0.66145 0,0.36826 -0.553766,0.35915 -0.825931,-0.0136 -0.09046,-0.12388 -0.218668,0.14401 -0.284905,0.59531 -0.12836,0.87457 0.170739,1.14418 0.380303,0.34281 z m 11.791934,-0.4553 c -0.08146,-0.0815 -0.229407,0.0654 -0.328766,0.32632 -0.143584,0.37709 -0.113194,0.40748 0.148114,0.14812 0.180822,-0.17948 0.262115,-0.39297 0.180652,-0.47444 z m 7.186436,-0.50659 c 0.0046,-0.13695 -0.166394,-0.0179 -0.380048,0.26459 -0.213651,0.28247 -0.392245,0.62564 -0.396875,0.76259 -0.0046,0.13696 0.166394,0.0179 0.380048,-0.26458 0.213651,-0.28247 0.392244,-0.62564 0.396875,-0.7626 z m -6.741809,-0.15328 c -0.154117,-0.24937 -1.187278,-0.0195 -1.187278,0.26417 0,0.10837 0.29627,0.1404 0.658376,0.0712 0.362106,-0.0692 0.600112,-0.22013 0.528902,-0.33535 z m 33.751678,-0.88393 c -0.37056,-0.97464 -0.57824,-0.87788 -0.23418,0.1091 0.15478,0.44399 0.33051,0.75816 0.39052,0.69815 0.06,-0.06 -0.0104,-0.42327 -0.15634,-0.80725 z m -58.98229,0.16174 c 0.329107,-0.41964 0.319749,-0.429 -0.0999,-0.0999 -0.254661,0.19972 -0.463021,0.40808 -0.463021,0.46302 0,0.21776 0.217272,0.0776 0.562916,-0.36313 z m 12.85338,-0.92296 c -0.06329,-0.32911 -0.117469,-0.12214 -0.120406,0.45994 -0.0029,0.58208 0.04884,0.85136 0.115067,0.5984 0.06622,-0.25297 0.06863,-0.72922 0.0053,-1.05834 z m 12.777454,0.85682 c 0,-0.14553 -0.12609,-0.26459 -0.280199,-0.26459 -0.154109,0 -0.206613,0.11906 -0.116676,0.26459 0.08994,0.14552 0.216027,0.26458 0.280199,0.26458 0.06417,0 0.116676,-0.11906 0.116676,-0.26458 z m -18.452377,-1.94782 c 1.627241,-0.7758 2.320455,-1.51241 2.459849,-2.61384 0.05552,-0.43866 0.295307,-1.09422 0.532868,-1.45678 0.904667,-1.3807 0.836987,-3.70691 -0.148101,-5.09034 -0.292502,-0.41078 -0.531822,-0.81882 -0.531822,-0.90675 0,-0.0879 -0.347438,-0.63951 -0.772085,-1.22572 -0.558268,-0.77067 -0.832652,-0.97153 -0.990792,-0.72531 -0.679115,1.05735 -0.882956,1.72322 -0.882956,2.8843 0,0.74284 -0.120577,1.29267 -0.283483,1.29267 -0.155915,0 -0.09638,0.1871 0.132292,0.41578 0.490857,0.49085 0.515784,0.7013 0.128894,1.08819 -0.206118,0.20611 -0.150254,0.3886 0.198437,0.64822 0.561055,0.41774 0.651436,1.79727 0.156884,2.3946 -0.180638,0.21818 -0.271719,0.45341 -0.202401,0.52272 0.06932,0.0693 -0.288902,0.52821 -0.796045,1.01975 -0.912291,0.88423 -0.922078,0.88683 -0.922078,0.24475 0,-0.35693 0.110751,-1.03513 0.246113,-1.50711 0.151764,-0.52916 0.151764,-0.85815 0,-0.85815 -0.135362,0 -0.246879,0.0893 -0.247815,0.19844 -9.26e-4,0.10914 -0.787817,0.49449 -1.748625,0.85633 -2.457332,0.92545 -3.405025,2.38482 -1.548661,2.38482 0.534546,0 0.992271,0.15095 1.069719,0.35277 0.07446,0.19403 0.333168,0.35278 0.574916,0.35278 0.241749,0 0.674171,0.31426 0.960937,0.69835 0.502134,0.67256 0.534432,0.67974 0.874299,0.19451 0.194097,-0.27711 0.976942,-0.80135 1.739656,-1.16498 z m 1.724473,-5.19593 c -0.281363,-1.74984 -0.385619,-5.02709 -0.159921,-5.02709 0.337344,0 0.515373,1.63603 0.43187,3.96875 -0.07145,1.99613 -0.102026,2.11511 -0.271949,1.05834 z m -7.613762,5.47475 c 0,-0.14523 -0.238125,0.0105 -0.529167,0.34608 -0.291042,0.33557 -0.529167,0.6699 -0.529167,0.74295 0,0.0731 0.238125,-0.0827 0.529167,-0.34608 0.291042,-0.26339 0.529167,-0.59771 0.529167,-0.74295 z m -1.5875,0.25813 c 0.278858,-0.11755 0.246038,-0.14902 -0.110367,-0.10582 -0.278983,0.0338 -0.555938,0.24007 -0.615456,0.45835 -0.0696,0.25527 -0.03022,0.29302 0.110367,0.10582 0.120219,-0.16008 0.397174,-0.36634 0.615456,-0.45835 z m 53.950102,-2.67695 c -0.14459,-0.15163 -0.22761,0.26825 -0.20925,1.05834 l 0.0304,1.30968 0.20925,-1.05833 c 0.1175,-0.59424 0.10415,-1.16856 -0.0304,-1.30969 z m -53.685519,1.57427 c 0,-0.21828 -0.04679,-0.39687 -0.103984,-0.39687 -0.05719,0 -0.172517,0.17859 -0.25628,0.39687 -0.08376,0.21829 -0.03697,0.39688 0.103985,0.39688 0.140953,0 0.256279,-0.17859 0.256279,-0.39688 z m 35.189583,-0.49685 c 0,-0.35849 -0.852929,-2.0457 -0.973301,-1.92533 -0.297731,0.29773 0.204187,2.02531 0.588415,2.02531 0.211687,0 0.384886,-0.045 0.384886,-0.1 z m 21.431256,-0.62204 c -0.21828,-0.0831 -0.48435,-0.28205 -0.59126,-0.44213 -0.1199,-0.17953 -0.19594,-0.11364 -0.19844,0.17196 -0.003,0.31108 0.19131,0.45617 0.59126,0.44213 0.39779,-0.014 0.46363,-0.071 0.19844,-0.17196 z m 1.23907,-0.65051 c -0.0845,-0.21106 -0.14715,-0.14837 -0.15985,0.15986 -0.0115,0.27891 0.051,0.43518 0.13897,0.34726 0.0879,-0.0879 0.0973,-0.31612 0.0209,-0.50712 z M 65.216395,193.9982 c 0.01817,-0.50703 -0.359563,-1.53804 -1.456766,-3.97623 -0.206353,-0.45855 -0.373682,-0.9348 -0.371842,-1.05833 0.0019,-0.12353 -0.316986,-1.29616 -0.708504,-2.60585 -0.864971,-2.89346 -2.092403,-4.75316 -3.296046,-4.99388 -1.076762,-0.21536 -2.881911,0.31011 -2.699384,0.78576 0.07417,0.19329 -0.05473,0.73146 -0.286445,1.19595 -0.575919,1.15445 -0.564934,2.12464 0.02151,1.8996 0.335466,-0.12873 0.401618,-0.0626 0.272887,0.27289 -0.09455,0.24638 -0.04255,0.44281 0.117217,0.44281 0.157926,0 0.226878,0.23043 0.153227,0.51208 -0.07742,0.29606 0.02117,0.57159 0.233724,0.65315 0.2022,0.0776 0.367637,0.38996 0.367637,0.69416 0,0.3042 0.115572,0.48166 0.256826,0.39436 0.141255,-0.0873 0.332549,0.14297 0.425099,0.51172 0.09255,0.36875 0.274634,0.60472 0.404632,0.52437 0.129998,-0.0803 0.236359,0.0395 0.236359,0.26642 0,0.38069 0.322271,0.53707 0.892356,0.433 0.126993,-0.0232 0.155408,0.15457 0.06315,0.395 -0.121277,0.31604 -0.05697,0.39464 0.232124,0.28371 0.219931,-0.0844 0.399875,-0.0311 0.399875,0.11844 0,0.14955 0.131818,0.19043 0.29293,0.0909 0.194545,-0.12024 0.236328,-0.003 0.124406,0.34993 -0.110952,0.34957 -0.03025,0.58402 0.236238,0.68628 0.222618,0.0854 0.40476,0.0364 0.40476,-0.10887 0,-0.14532 0.357187,-1.3e-4 0.79375,0.32264 0.701831,0.51888 0.799418,0.75726 0.842693,2.05844 l 0.04894,1.4716 0.09718,-1.38907 c 0.05345,-0.76398 0.210015,-1.38906 0.347931,-1.38906 0.137916,0 0.259866,0.14883 0.271,0.33073 0.01113,0.1819 0.08134,0.56886 0.156011,0.8599 0.07467,0.29104 0.202384,0.94588 0.283806,1.45521 l 0.14804,0.92604 0.337279,-0.92604 c 0.185504,-0.50933 0.346337,-1.1788 0.357408,-1.48772 z m 36.262645,0.33746 c 0.45969,-0.26884 0.77173,-0.55286 0.69344,-0.63115 -0.0783,-0.0783 -0.46215,0.0672 -0.85301,0.32328 -0.6287,0.41194 -0.69164,0.41608 -0.54573,0.0358 0.18948,-0.49376 -0.21941,-0.58672 -0.51032,-0.11602 -0.10666,0.17258 -0.21452,0.79766 -0.23969,1.38906 l -0.04581,1.07529 0.33264,-0.79375 c 0.18296,-0.43657 0.70875,-1.01371 1.16843,-1.28255 z m -10.021555,-0.23522 c 0.299,-0.57871 0.30696,-1.45071 0.0149,-1.63122 -0.18986,-0.11734 -0.80909,-2.19377 -1.19131,-3.99476 -0.0618,-0.29104 -0.12471,-0.11245 -0.13986,0.39687 -0.0152,0.50933 0.14822,1.58089 0.36304,2.38125 0.37371,1.39231 0.51961,2.657 0.2211,1.91658 -0.18767,-0.46552 -0.61797,-0.13688 -0.61797,0.47198 0,0.35978 0.12506,0.45726 0.43433,0.33858 0.37254,-0.14295 0.41091,-0.0194 0.26973,0.8682 -0.14284,0.89816 -0.12672,0.94749 0.12205,0.37341 0.15765,-0.3638 0.39346,-0.8682 0.52402,-1.12089 z m 12.011335,1.38548 c -0.0899,-0.14553 -0.30532,-0.26276 -0.47864,-0.26054 -0.18933,0.002 -0.1567,0.10643 0.0818,0.26054 0.50829,0.32848 0.59989,0.32848 0.39687,0 z m -19.845627,-0.26156 c 0.09269,-0.14998 -0.01352,-0.19433 -0.248968,-0.10398 -0.458369,0.17589 -0.542234,0.36554 -0.16165,0.36554 0.136933,0 0.321712,-0.1177 0.410618,-0.26156 z m 9.496002,-1.10987 c 0.0234,-0.46424 0.17814,-0.60503 0.63789,-0.5803 0.45727,0.0246 0.74071,-0.22939 1.14888,-1.02947 0.54719,-1.07258 0.77616,-1.40232 1.61754,-2.32944 0.25466,-0.28061 0.46302,-0.67605 0.46302,-0.87876 0,-0.20272 0.17859,-0.4371 0.39687,-0.52087 0.21829,-0.0838 0.39688,-0.45742 0.39688,-0.83036 0,-0.37293 0.15315,-0.73683 0.34033,-0.80866 0.21419,-0.0822 0.35784,-0.69206 0.38756,-1.64534 l 0.0472,-1.51475 -0.74068,2.15405 c -0.94823,2.75763 -2.80803,5.4059 -4.48232,6.38262 -0.9773,0.57011 -1.25953,0.89224 -1.32955,1.5175 -0.072,0.64276 -0.0242,0.73083 0.25135,0.46302 0.5446,-0.52935 0.80883,-0.38246 0.47593,0.26458 -0.24498,0.47616 -0.23978,0.53265 0.026,0.28222 0.18274,-0.1722 0.34614,-0.58892 0.36312,-0.92604 z m -7.355658,-0.88486 c -0.09775,-0.38945 -0.4177,-0.71021 -0.805532,-0.80755 -0.747488,-0.18761 -2.343007,0.27852 -2.787782,0.81444 -0.204039,0.24585 0.132741,0.18377 1.007147,-0.18566 1.573813,-0.66491 2.053045,-0.53421 2.31453,0.63124 0.108318,0.48278 0.250232,0.72384 0.315365,0.53569 0.06513,-0.18814 0.04546,-0.63282 -0.04373,-0.98816 z m 15.295583,-0.23233 c 0.82702,-0.31584 1.14541,-0.57051 1.04391,-0.835 -0.0803,-0.2093 -0.3276,-0.38055 -0.54951,-0.38055 -0.66102,0 -2.073315,0.99799 -2.387195,1.6869 -0.36165,0.79373 -0.10125,1.13109 0.36227,0.46933 0.18731,-0.26743 0.876045,-0.69073 1.530525,-0.94068 z m -13.200721,0.63653 c 0.08994,-0.14552 -0.02209,-0.26458 -0.248967,-0.26458 -0.22687,0 -0.412491,0.11906 -0.412491,0.26458 0,0.14552 0.112035,0.26459 0.248968,0.26459 0.136932,0 0.322553,-0.11907 0.41249,-0.26459 z m 11.325136,-1.21292 c 0.26246,-0.34453 0.937245,-0.76425 1.499495,-0.93271 1.17892,-0.35321 1.19609,-0.99565 0.022,-0.82333 -1.141415,0.16753 -2.374625,1.35193 -2.540365,2.4398 -0.1241,0.8146 -0.1,0.86687 0.20029,0.43435 0.18774,-0.27042 0.5561,-0.77357 0.81857,-1.11811 z m -12.445138,-0.043 c -0.114887,-0.29939 -0.06089,-0.35679 0.189878,-0.20181 0.228243,0.14106 0.287092,0.1141 0.16878,-0.0773 -0.0999,-0.16165 -0.356425,-0.22684 -0.570047,-0.14487 -0.240628,0.0923 -0.3884,-0.0102 -0.3884,-0.26959 0,-0.34005 0.127399,-0.37019 0.678682,-0.1606 1.000943,0.38056 1.215298,0.31795 0.859878,-0.25117 -0.483444,-0.77412 -2.157029,-1.60746 -3.228229,-1.60746 -0.8494,0 -0.956165,0.0756 -0.956165,0.67708 0,0.41151 0.110509,0.60877 0.281752,0.50294 0.390221,-0.24117 2.099498,0.10775 2.099498,0.42859 0,0.16105 -0.508772,0.19421 -1.322916,0.0862 -1.135319,-0.1506 -1.322917,-0.11202 -1.322917,0.2721 0,0.26784 0.185957,0.42868 0.463021,0.40049 1.426969,-0.14515 2.237798,0.0347 2.365946,0.5247 0.07599,0.29061 0.286256,0.45228 0.487688,0.37498 0.197321,-0.0757 0.283017,-0.32112 0.193551,-0.55426 z m -25.206039,0.3455 c 0,-0.0642 -0.119063,-0.19027 -0.264584,-0.2802 -0.145521,-0.0899 -0.264583,-0.0374 -0.264583,0.11667 0,0.15411 0.119062,0.2802 0.264583,0.2802 0.145521,0 0.264584,-0.0525 0.264584,-0.11667 z m 28.839587,-0.39688 c 0,-0.13693 -0.11907,-0.32255 -0.26459,-0.41249 -0.14552,-0.0899 -0.26458,0.0221 -0.26458,0.24897 0,0.22687 0.11906,0.41249 0.26458,0.41249 0.14552,0 0.26459,-0.11204 0.26459,-0.24897 z m 4.25134,-1.55408 c 1.05668,-1.20045 2.9041,-4.64382 2.88026,-5.36846 -0.007,-0.20302 -0.35096,0.34526 -0.76508,1.21838 -0.84536,1.78237 -2.59399,3.9853 -3.74848,4.72234 -1.17024,0.74711 -0.91469,0.18667 0.58491,-1.28275 0.74256,-0.72761 1.59833,-1.68011 1.90172,-2.11667 l 0.55162,-0.79375 -0.57919,0.50403 c -0.80299,0.69879 -0.72393,0.28849 0.16626,-0.86283 1.31776,-1.70433 1.9422,-2.68391 1.71086,-2.68391 -0.12405,0 -0.42472,0.32742 -0.66816,0.72761 -0.24344,0.40018 -0.87192,1.17409 -1.39662,1.71979 -1.07145,1.11432 -1.99153,1.27295 -3.33967,0.5758 -0.44286,-0.22901 -0.87725,-0.34434 -0.9653,-0.25628 -0.088,0.088 -0.31089,-0.11153 -0.4952,-0.44352 -0.32595,-0.58711 -0.33536,-0.5801 -0.34448,0.25629 -0.005,0.47294 0.0992,0.8599 0.23195,0.8599 0.13273,0 0.32559,0.50601 0.42857,1.12448 0.10298,0.61846 0.33993,1.54119 0.52655,2.05052 0.18662,0.50932 0.40509,1.13008 0.48549,1.37947 0.23406,0.72604 1.57999,0.0942 2.83399,-1.33044 z m -3.35264,-2.05803 c -0.55268,-1.32275 -0.28688,-1.78885 0.31421,-0.55101 0.5053,1.04057 0.74215,1.10444 2.09438,0.56479 0.52202,-0.20833 0.52236,-0.20343 0.0251,0.36285 -0.29925,0.34082 -0.81533,0.57403 -1.27027,0.57403 -0.6294,0 -0.83718,-0.16978 -1.16346,-0.95066 z m 9.033475,1.59273 c 0.90687,-0.17013 1.28614,-0.64207 0.51598,-0.64207 -0.55223,0 -2.682295,1.02442 -3.049135,1.46643 -0.6482,0.78103 0.0682,0.89663 0.83078,0.13406 0.43264,-0.43264 1.19871,-0.86393 1.702375,-0.95842 z m -10.438895,0.12395 c -0.23308,-0.5827 -0.25484,-0.58934 -0.27026,-0.0825 -0.009,0.30317 0.0626,0.63059 0.15962,0.7276 0.31601,0.31602 0.36975,0.003 0.11064,-0.64509 z m -2.437451,-0.41868 c -0.317992,-0.39093 -0.305575,-0.42485 0.0999,-0.27289 0.254662,0.0954 0.463021,0.0668 0.463021,-0.0635 0,-0.42532 -1.367343,-1.3252 -2.481937,-1.63341 -0.599467,-0.16577 -0.93472,-0.35682 -0.745009,-0.42456 0.657495,-0.23477 2.107571,0.21003 2.811481,0.86239 0.864876,0.80154 0.965113,0.81147 0.854189,0.0846 -0.149278,-0.97815 -1.140447,-1.54579 -2.699165,-1.54579 -1.181637,0 -1.432208,0.0851 -1.558187,0.52917 -0.08257,0.29104 -0.217675,0.76729 -0.300244,1.05833 -0.128363,0.45247 -0.02291,0.5298 0.727604,0.53352 0.482751,0.002 1.353976,0.28883 1.93606,0.63652 1.304356,0.77912 1.342596,0.78921 0.892291,0.23563 z m 11.873851,-0.33109 c 1.348085,-0.59779 1.865525,-1.34364 0.926055,-1.33481 -0.746435,0.007 -2.566955,1.15773 -2.668865,1.68692 -0.0515,0.26749 0.007,0.43628 0.13005,0.3751 0.12303,-0.0612 0.84878,-0.38842 1.61276,-0.72721 z m -9.6906,-0.61597 c -0.26131,-0.25936 -0.2917,-0.22897 -0.14812,0.14811 0.0994,0.26094 0.24731,0.40778 0.32877,0.32632 0.0815,-0.0815 1.7e-4,-0.29495 -0.18065,-0.47443 z m 9.43153,-0.93817 c 0.0576,-0.17281 -0.0838,-0.31419 -0.31419,-0.31419 -0.23041,0 -0.41892,0.18852 -0.41892,0.41892 0,0.46724 0.56958,0.38587 0.73311,-0.10473 z m -3.08287,-3.29075 0.53371,-0.72761 h -0.81177 c -0.44647,0 -0.82452,0.0893 -0.84011,0.19844 -0.0156,0.10914 -0.0486,0.49609 -0.0734,0.8599 -0.0248,0.3638 -0.1969,0.95911 -0.38252,1.32291 -0.29666,0.58145 -0.25414,0.56544 0.35144,-0.13229 0.37891,-0.43656 0.92909,-1.12117 1.22263,-1.52135 z m -7.307536,1.65364 c -0.08994,-0.14552 -0.364855,-0.26276 -0.610928,-0.26053 -0.385569,0.003 -0.392554,0.0395 -0.05053,0.26053 0.518152,0.33486 0.86841,0.33486 0.661458,0 z m 11.542821,0.0179 c 0.47329,0.25329 0.49015,0.23058 0.188,-0.25325 -0.24686,-0.39529 -0.419485,-0.45884 -0.673565,-0.24797 -0.1879,0.15594 -0.33223,0.41778 -0.32074,0.58186 0.0132,0.1895 0.0693,0.17845 0.15363,-0.0303 0.0978,-0.24204 0.26973,-0.25531 0.652675,-0.0504 z m -8.348925,-0.50927 c -0.22174,-0.22175 -0.47746,-0.32889 -0.56826,-0.23809 -0.2535,0.2535 0.0793,0.64127 0.55032,0.64127 0.37725,0 0.37912,-0.042 0.0179,-0.40318 z m 1.7009,0.3684 c 0,-0.0676 -0.26789,-0.2528 -0.59532,-0.41147 -0.57166,-0.27703 -0.57491,-0.27215 -0.0817,0.12298 0.53982,0.43249 0.67704,0.49095 0.67704,0.28849 z m -40.448956,-0.84936 c -0.311902,-0.53637 -0.387221,-0.36469 -0.131903,0.30066 0.09074,0.23645 0.220714,0.37419 0.288836,0.30606 0.06812,-0.0681 -0.0025,-0.34115 -0.156933,-0.60672 z m 33.181409,0.32439 c 0.504647,-0.21086 0.917543,-0.45601 0.917543,-0.54479 0,-0.0888 -0.13621,-0.0772 -0.302689,0.0257 -0.166478,0.10289 -0.791556,0.34007 -1.389062,0.52708 -0.597506,0.18701 -0.874191,0.34797 -0.614855,0.35771 0.259334,0.01 0.884412,-0.15482 1.389063,-0.36567 z M 54.416974,184.638 c 0.104939,0 0.11172,-0.50602 0.01507,-1.12448 -0.09665,-0.61846 -0.170405,-2.52283 -0.163898,-4.23193 0.0129,-3.38843 -0.281916,-3.72318 -0.729488,-0.8283 -0.358817,2.32082 -0.01337,8.06222 0.415897,6.91231 0.149391,-0.40018 0.357479,-0.7276 0.462418,-0.7276 z m 39.659131,1.21893 c 0,-0.0572 -0.18477,-0.17489 -0.41061,-0.26155 -0.23546,-0.0904 -0.34167,-0.046 -0.24897,0.10398 0.15538,0.25141 0.65958,0.37186 0.65958,0.15757 z m -50.805304,-0.56387 c -0.184076,-0.22179 -0.38917,-0.34878 -0.455766,-0.28218 -0.183488,0.18349 0.189321,0.68545 0.509084,0.68545 0.175444,0 0.155372,-0.15181 -0.05332,-0.40327 z m 48.795174,0.097 c -0.13038,-0.21095 -0.007,-0.2586 0.39638,-0.15311 0.48347,0.12643 0.5312,0.0875 0.27356,-0.2229 -0.24878,-0.29977 -0.22148,-0.37606 0.13457,-0.37606 0.24566,0 0.70672,0.12563 1.02458,0.27918 0.55826,0.26968 0.56045,0.26519 0.0643,-0.13229 -0.28248,-0.22631 -0.6099,-0.41147 -0.72761,-0.41147 -0.1177,0 -0.21401,-0.1786 -0.21401,-0.39688 0,-0.62366 -0.37668,-0.46852 -1.03966,0.4282 -0.49362,0.66766 -0.54097,0.8688 -0.24819,1.05428 0.48767,0.30894 0.56038,0.29403 0.33605,-0.069 z m -48.001424,-0.36159 c -0.184076,-0.2218 -0.38917,-0.34878 -0.455766,-0.28219 -0.183488,0.18349 0.189321,0.68546 0.509084,0.68546 0.175444,0 0.155372,-0.15181 -0.05332,-0.40327 z m 42.148336,0.0989 c 0.312761,-0.16738 0.930013,-0.66288 1.371669,-1.1011 l 0.80301,-0.79677 -0.997466,0.72172 c -0.548606,0.39695 -1.411809,0.78896 -1.918229,0.87114 -0.506421,0.0822 -0.920763,0.25291 -0.920763,0.37938 0,0.32849 0.991991,0.28409 1.661779,-0.0744 z m -41.253599,-0.35712 c -0.08376,-0.21828 -0.347916,-0.39309 -0.587009,-0.38846 -0.368982,0.007 -0.357056,0.0671 0.07888,0.39687 0.641933,0.48554 0.697325,0.48462 0.508131,-0.008 z m 54.970487,-0.20285 c -0.26131,-0.25936 -0.2917,-0.22897 -0.14812,0.14812 0.0994,0.26093 0.247315,0.40778 0.328775,0.32632 0.0815,-0.0815 1.7e-4,-0.29496 -0.180655,-0.47444 z m -54.140126,0.0706 c -0.08994,-0.14552 -0.305322,-0.26276 -0.478635,-0.26053 -0.18934,0.002 -0.156707,0.10642 0.08176,0.26053 0.508297,0.32849 0.599891,0.32849 0.396875,0 z m 6.592566,-1.85208 c -0.321883,-1.80911 -0.315584,-2.52798 0.03941,-4.49792 l 0.119199,-0.66146 -0.386027,0.66146 c -0.72583,1.24371 -0.77629,2.75193 -0.159957,4.78107 0.315651,1.03921 0.61138,1.84712 0.657174,1.79535 0.04579,-0.0518 -0.07562,-0.9871 -0.269802,-2.0785 z m 35.90681,1.65364 c 0.329107,-0.41964 0.319749,-0.429 -0.0999,-0.0999 -0.254662,0.19972 -0.463021,0.40808 -0.463021,0.46302 0,0.21776 0.217273,0.0776 0.562917,-0.36313 z m -24.648513,-1.05833 c 0.17539,-0.69123 0.360919,-2.09021 0.412286,-3.10886 l 0.0934,-1.85208 -0.255406,1.85208 c -0.222104,1.6106 -0.505614,2.79123 -0.968921,4.0349 -0.06777,0.1819 -0.0055,0.33073 0.138273,0.33073 0.143815,0 0.404982,-0.56555 0.580372,-1.25677 z m 28.336573,-0.41892 c -0.19992,-0.19992 -0.37483,-0.18963 -0.59973,0.0353 -0.24694,0.24695 -0.24559,0.3175 0.006,0.3175 0.22852,0 0.19633,0.21378 -0.10954,0.72761 l -0.43315,0.7276 0.70928,-0.76287 c 0.50241,-0.54038 0.62696,-0.84519 0.42704,-1.04511 z m -5.36236,0.87688 c 0.480145,-0.29274 0.799976,-0.6504 0.710735,-0.79479 -0.09846,-0.15931 -0.319789,-0.10501 -0.562893,0.13809 -0.598467,0.59847 -1.394987,0.97162 -1.687762,0.79067 -0.142512,-0.0881 -0.259114,-0.034 -0.259114,0.12006 0,0.44481 0.849559,0.32485 1.799034,-0.25403 z m -42.015701,0.005 c 0.312796,-0.20214 0.256744,-0.2534 -0.264583,-0.24194 -0.363802,0.008 -0.899583,0.11687 -1.190625,0.24194 -0.454328,0.19523 -0.416908,0.22945 0.264583,0.24193 0.436563,0.008 0.972344,-0.10087 1.190625,-0.24193 z m 18.386169,-1.32292 c 0.181255,-0.63303 0.172392,-0.63914 -0.206214,-0.14228 -0.352602,0.46274 -0.447718,0.47712 -0.87494,0.13229 -0.421432,-0.34015 -0.416901,-0.30151 0.03751,0.31992 0.560037,0.76587 0.751924,0.70889 1.043639,-0.30993 z m 22.888831,0.79375 c 0.343258,-0.22183 0.337302,-0.25702 -0.0441,-0.26053 -0.242533,-0.002 -0.501025,-0.15288 -0.574423,-0.33478 -0.0734,-0.1819 -0.142852,-0.0628 -0.15434,0.26458 -0.02273,0.64771 0.160827,0.72626 0.772861,0.33073 z m 4.523241,-0.18934 c 0.42263,-0.24965 0.76843,-0.54731 0.76843,-0.66145 0,-0.38875 -0.50727,-0.20892 -1.04803,0.37152 -0.43873,0.47092 -0.53947,0.49843 -0.53947,0.14729 0,-0.23747 0.2607,-0.61437 0.57935,-0.83755 0.31864,-0.22319 0.49362,-0.49152 0.38885,-0.59629 -0.32844,-0.32844 -1.536405,1.09166 -1.347447,1.58407 0.211847,0.55207 0.251317,0.55182 1.198317,-0.008 z m -45.533657,-0.14139 c 0,-0.10914 -0.416719,-0.19843 -0.926042,-0.19843 -0.509323,0 -0.926042,0.0893 -0.926042,0.19843 0,0.10914 0.416719,0.19844 0.926042,0.19844 0.509323,0 0.926042,-0.0893 0.926042,-0.19844 z m 53.445837,0.13788 c -0.21829,-0.0831 -0.48254,-0.28205 -0.58724,-0.44213 -0.13634,-0.20846 -0.34181,-0.1972 -0.72402,0.0397 -0.29351,0.1819 -0.76347,0.33073 -1.04436,0.33073 -0.28089,0 -0.58016,-0.14883 -0.66504,-0.33073 -0.12348,-0.26458 -0.18521,-0.26458 -0.30868,0 -0.0849,0.1819 -0.44208,0.33073 -0.79375,0.33073 -0.46302,0 -0.63941,-0.14598 -0.63941,-0.52917 0,-0.29104 0.11906,-0.52916 0.26458,-0.52916 0.14552,0 0.26458,0.19704 0.26458,0.43788 0,0.40745 0.0336,0.40745 0.48386,0 0.57377,-0.51926 1.26285,-0.5692 1.47847,-0.10715 0.12347,0.26458 0.18521,0.26458 0.30868,0 0.19916,-0.42677 1.49438,-0.42826 1.92043,-0.002 0.26163,0.26163 0.37441,0.25426 0.55394,-0.0362 0.13826,-0.22372 0.49204,-0.31377 0.91502,-0.23291 0.408345,0.0781 0.689815,0.0119 0.690125,-0.16221 2.7e-4,-0.2033 -0.932325,-0.26879 -3.022405,-0.21222 -1.6626,0.045 -3.60704,-0.0243 -4.32098,-0.15411 -1.24182,-0.22571 -1.29335,-0.21128 -1.18929,0.33305 0.20584,1.0768 1.28133,1.4462 4.16653,1.4311 1.45521,-0.008 2.46724,-0.0818 2.24896,-0.16492 z m 1.791445,-0.38592 c -0.163535,-0.4906 -0.733115,-0.57197 -0.733115,-0.10473 0,0.2304 0.18851,0.41892 0.41892,0.41892 0.230415,0 0.371805,-0.14139 0.314195,-0.31419 z m -55.237282,-0.47956 c 0,-0.14552 -0.234389,-0.26458 -0.520863,-0.26458 -0.354287,0 -0.472158,-0.12693 -0.368568,-0.39688 0.09355,-0.24378 -3.7e-4,-0.39687 -0.243489,-0.39687 -0.656194,0 -0.372843,0.91326 0.33917,1.09317 0.363802,0.0919 0.691224,0.18122 0.727604,0.19844 0.03638,0.0172 0.06615,-0.0878 0.06615,-0.23328 z m 40.889004,-0.24698 c -0.09592,-0.1552 -0.291131,-0.28219 -0.4338,-0.28219 -0.142671,0 -0.105878,0.16659 0.08176,0.37019 0.379852,0.41218 0.62352,0.35126 0.35204,-0.088 z m 2.921974,-0.0651 c 0.133181,0.10929 0.584536,-0.13298 1.003009,-0.53838 0.65492,-0.63445 0.69075,-0.73708 0.25731,-0.73708 -0.662845,0 -1.605275,0.67554 -1.956763,1.40263 -0.251719,0.52071 -0.242642,0.53413 0.08653,0.12793 0.202269,-0.2496 0.476729,-0.36439 0.60991,-0.2551 z m -33.08654,-0.28327 c -0.430712,-1.38453 -0.475221,-3.38705 -0.08546,-3.84481 0.43365,-0.50929 0.483623,-1.72819 0.07664,-1.86937 -0.691421,-0.23986 -1.230934,3.28992 -0.69816,4.56775 0.257227,0.61694 0.253377,0.81601 -0.01919,0.99218 -0.271511,0.17549 -0.260124,0.27347 0.05589,0.48093 0.64094,0.42075 0.868314,0.30993 0.670272,-0.32668 z m -2.304444,-4.10094 c 0.150874,-0.47295 0.184014,-0.8599 0.07364,-0.8599 -0.326804,0 -0.823805,2.57747 -0.781921,4.05508 0.03735,1.31762 0.0462,1.29953 0.23638,-0.48321 0.108668,-1.01864 0.321022,-2.23903 0.471896,-2.71197 z m 9.690162,3.57187 c 0.401502,-0.96961 0.718655,-3.96065 0.399018,-3.76311 -0.11425,0.0706 -0.257978,-0.0212 -0.319396,-0.20399 -0.06142,-0.18281 -0.259413,0.11411 -0.439992,0.65981 -0.180578,0.5457 -0.497685,0.99219 -0.70468,0.99219 -0.359562,0 -0.422357,-0.11199 -0.48219,-0.8599 -0.01455,-0.1819 -0.35388,-0.53734 -0.754062,-0.78986 -0.400182,-0.25252 -0.727604,-0.58697 -0.727604,-0.74322 0,-0.15625 -0.101863,-0.22113 -0.226363,-0.14419 -0.124499,0.077 -0.173368,-0.13732 -0.108597,-0.47615 0.07557,-0.3953 -0.0299,-0.67272 -0.29433,-0.77419 -0.661408,-0.2538 -0.75817,0.24872 -0.426509,2.21503 0.246514,1.4615 0.504472,2.07716 1.2384,2.95561 1.709046,2.0456 2.304441,2.24055 2.846305,0.93197 z m -1.317327,-0.21172 c -0.09739,-0.15758 -0.109652,-0.35392 -0.02725,-0.43632 0.0824,-0.0824 -0.146804,-0.38313 -0.509336,-0.6683 -0.696842,-0.54814 -1.565617,-2.29364 -1.274531,-2.56074 0.09459,-0.0868 0.221494,-0.0199 0.282003,0.14861 0.216547,0.60314 1.723667,2.73628 1.933256,2.73628 0.117572,0 0.356527,-0.38695 0.53101,-0.85989 0.174484,-0.47295 0.367548,-0.73237 0.429032,-0.5765 0.133485,0.33842 -0.580501,2.12845 -0.936802,2.34866 -0.13767,0.0851 -0.32999,0.0258 -0.427378,-0.1318 z m 27.160558,-0.40043 c 0.428176,-0.22141 0.70805,-0.51656 0.62194,-0.65589 -0.0861,-0.13932 -0.0234,-0.25331 0.13926,-0.25331 0.16269,0 0.22544,-0.11387 0.13943,-0.25303 -0.086,-0.13917 -0.33208,-0.18561 -0.546816,-0.10321 -0.285638,0.10962 -0.372136,-0.0178 -0.322257,-0.47457 0.06228,-0.57038 -0.04298,-0.63148 -1.21662,-0.70619 -1.325121,-0.0844 -2.287074,0.41243 -2.287074,1.18113 0,0.5054 0.212526,0.44671 1.106585,-0.30559 0.500396,-0.42106 1.091245,-0.65319 1.625695,-0.63872 0.81134,0.022 0.816814,0.0297 0.162685,0.22815 -0.974453,0.29568 -1.836632,0.78991 -1.836632,1.05281 0,0.12472 0.438362,0.003 0.97414,-0.26989 0.535776,-0.27315 1.041792,-0.42261 1.124479,-0.33213 0.08268,0.0905 0.0075,0.21568 -0.167113,0.27821 -0.678897,0.24314 -1.663494,1.19285 -1.50408,1.45079 0.09824,0.15896 0.236485,0.17125 0.333251,0.0296 0.230473,-0.33732 1.426131,-1.13739 1.699744,-1.13739 0.124307,0 -0.140628,0.30851 -0.588748,0.68557 -0.44899,0.3778 -0.733306,0.81737 -0.633317,0.97916 0.128892,0.20855 0.212653,0.19995 0.289197,-0.0297 0.05927,-0.17779 0.458079,-0.50442 0.886251,-0.72584 z m 5.78828,0.30483 c 0,-0.21305 -0.19887,-0.33539 -0.46302,-0.28482 -0.25466,0.0487 -0.61888,0.0977 -0.80937,0.10888 -0.62206,0.0364 -0.037,0.54941 0.62655,0.54941 0.37969,0 0.64584,-0.1539 0.64584,-0.37347 z m 0.92604,-0.1557 c 0.10826,-0.3411 0.42021,-0.54197 0.87773,-0.5652 0.65462,-0.0332 0.66182,-0.0452 0.0926,-0.15355 -0.59233,-0.1128 -1.63183,0.53972 -1.63183,1.02434 0,0.44198 0.49708,0.21233 0.66146,-0.30559 z m 1.1227,0 c 0.0696,-0.25526 0.0302,-0.29302 -0.11037,-0.10582 -0.12022,0.16008 -0.39717,0.36634 -0.61545,0.45836 -0.27886,0.11754 -0.24604,0.14901 0.11036,0.10582 0.27899,-0.0338 0.55594,-0.24008 0.61546,-0.45836 z m 1.65543,0.45568 c 0,-0.0404 -0.22703,-0.26788 -0.50451,-0.50547 -0.47019,-0.40258 -0.5135,-0.39758 -0.63669,0.0735 -0.10307,0.39415 0.008,0.50547 0.50451,0.50547 0.35018,0 0.63669,-0.0331 0.63669,-0.0735 z m 1.05833,-0.1911 c 0,-0.14552 -0.11906,-0.26458 -0.26458,-0.26458 -0.14552,0 -0.26459,0.11906 -0.26459,0.26458 0,0.14552 0.11907,0.26459 0.26459,0.26459 0.14552,0 0.26458,-0.11907 0.26458,-0.26459 z m -54.504167,-0.25954 c 0,-0.29339 -1.268699,-0.67662 -1.494025,-0.45129 -0.08055,0.0805 -0.06798,0.27345 0.02794,0.42865 0.218962,0.35428 1.466088,0.37355 1.466088,0.0226 z m 12.535082,-1.34544 c -0.0029,-0.79075 -0.02648,-2.01319 -0.05245,-2.71654 -0.07063,-1.91302 -0.638372,-1.42565 -1.024296,0.87929 -0.287736,1.71851 -0.273992,2.027 0.120027,2.69402 0.63932,1.08229 0.96272,0.79267 0.956719,-0.85677 z m 1.882649,0.59099 c -0.473998,-0.71626 -0.719397,-1.53197 -0.835764,-2.77812 -0.238021,-2.54891 -0.655083,-2.16998 -0.564796,0.51316 l 0.07663,2.2773 0.927579,0.47199 c 0.510168,0.2596 0.959033,0.48497 0.997478,0.50083 0.03845,0.0159 -0.232062,-0.42746 -0.601127,-0.98516 z m 31.341056,-0.13859 c -0.25475,-0.2348 -0.28996,-0.19401 -0.1571,0.18204 0.0942,0.26656 0.18504,0.62375 0.20192,0.79375 0.0169,0.16999 0.0876,0.0881 0.15711,-0.18204 0.0695,-0.27012 -0.0213,-0.62731 -0.20193,-0.79375 z m 9.14926,0.14535 c -0.0815,-0.0815 -0.29496,-1.7e-4 -0.47444,0.18065 -0.25936,0.26131 -0.22897,0.2917 0.14812,0.14811 0.26093,-0.0994 0.40778,-0.2473 0.32632,-0.32876 z m -54.91571,-0.32602 c -0.214067,-0.13538 -0.686869,-0.24125 -1.050671,-0.23526 -0.573096,0.009 -0.537752,0.0551 0.264584,0.34218 0.992539,0.35509 1.423867,0.29643 0.786087,-0.10692 z m 10.771737,-0.56844 c -0.08446,-0.21107 -0.147157,-0.14837 -0.159853,0.15985 -0.01149,0.27892 0.05105,0.43519 0.138965,0.34727 0.08792,-0.0879 0.09732,-0.31612 0.02089,-0.50712 z m 36.616123,-2.74958 c 0.52729,-0.56127 0.83457,-0.64039 2.48696,-0.64039 1.86909,0 2.52034,-0.25693 2.52034,-0.99432 0,-0.27851 -0.46118,-0.34178 -2.05052,-0.28133 -1.12778,0.0429 -2.21625,-0.0272 -2.4188,-0.15575 -0.48847,-0.31004 -1.95431,1.37403 -2.41745,2.77737 -0.18792,0.5694 -0.45019,1.03528 -0.58281,1.03528 -0.33603,0 0.35866,0.6534 0.92115,0.86639 0.25466,0.0964 0.47787,0.3279 0.49603,0.51437 0.0181,0.18646 0.12536,-0.29553 0.23824,-1.0711 0.12937,-0.88882 0.42765,-1.64686 0.80686,-2.05052 z m 1.8323,2.96581 c 0.3638,-0.002 0.95912,0.0459 1.32292,0.10629 0.3638,0.0604 0.70549,-0.006 0.7593,-0.14769 0.0538,-0.14163 0.20756,-0.54609 0.34166,-0.89879 0.13409,-0.3527 0.1699,-0.97778 0.0796,-1.38906 -0.15681,-0.71395 -0.23245,-0.74779 -1.67185,-0.74779 -2.04127,0 -2.68368,0.46805 -2.68368,1.95528 0,1.27575 0.18396,1.58545 0.77993,1.31302 0.22588,-0.10326 0.70835,-0.18932 1.07215,-0.19126 z m 5.6682,-0.0518 c 0.862515,-0.8625 0.741095,-2.49608 -0.18551,-2.49608 -0.15035,0 -0.66424,-0.29813 -1.14196,-0.66251 -0.50689,-0.38662 -0.93638,-0.55286 -1.03135,-0.3992 -0.0895,0.14483 -0.20457,1.06804 -0.25569,2.05158 l -0.093,1.78825 1.14552,0.0672 c 0.76267,0.0447 1.2847,-0.072 1.56194,-0.34924 z m -53.822364,-0.6696 c 0,-0.31844 -1.454905,-1.03273 -2.103527,-1.03273 -0.657942,0 -0.734752,0.52421 -0.07929,0.5411 0.254662,0.007 0.820209,0.18164 1.256771,0.38906 0.786184,0.37352 0.78114,0.37601 -0.529166,0.26019 l -1.322917,-0.11692 1.058333,0.35476 c 1.022828,0.34287 1.719792,0.1826 1.719792,-0.39546 z m 18.175021,-1.22613 c -0.06708,-0.25743 -0.126382,-0.11087 -0.131774,0.32569 -0.0054,0.43656 0.04949,0.64719 0.12197,0.46806 0.07247,-0.17913 0.07689,-0.53632 0.0098,-0.79375 z m -18.085502,-0.0875 c -0.129027,-0.12902 -0.707969,-0.41841 -1.286536,-0.64307 l -1.051941,-0.40848 0.926041,0.11455 c 0.509323,0.063 1.134401,0.19695 1.389063,0.29766 0.254661,0.10071 0.463021,0.0694 0.463021,-0.0696 0,-0.2212 -1.195262,-0.83371 -2.38125,-1.22027 -0.23976,-0.0781 -0.157838,-0.13763 0.206935,-0.15025 0.332096,-0.0115 1.024927,0.15506 1.539625,0.37012 0.863839,0.36093 0.929055,0.35591 0.847938,-0.0653 -0.105109,-0.5458 -1.742382,-1.41401 -2.396061,-1.2706 -0.254661,0.0559 -0.463021,-0.006 -0.463021,-0.13822 0,-0.33853 0.75112,-0.27889 1.974247,0.15675 1.192661,0.4248 1.497845,0.3163 0.871665,-0.30988 -0.379944,-0.37995 -2.826133,-0.96492 -3.073126,-0.73489 -0.05221,0.0486 -0.152564,0.99979 -0.223015,2.11372 -0.118972,1.88114 -0.09318,2.01425 0.362277,1.86969 0.269703,-0.0856 0.905841,0.0524 1.41364,0.30658 0.866921,0.43401 1.400584,0.30157 0.880498,-0.21852 z m 16.570498,-0.60642 c 0.200324,-0.88821 0.180284,-0.93359 -0.299017,-0.67708 -0.282553,0.15122 -0.715852,0.22865 -0.962887,0.17208 -0.320116,-0.0733 -0.18311,-0.22395 0.476887,-0.52432 l 0.926042,-0.42144 -1.251396,-0.0216 -1.251395,-0.0216 0.487915,0.85989 c 0.281502,0.49612 0.680398,0.84279 0.942901,0.81945 0.364306,-0.0324 0.420457,0.0994 0.281736,0.66145 -0.129986,0.52664 -0.09737,0.62741 0.130625,0.40353 0.167131,-0.1641 0.400496,-0.72678 0.518589,-1.25039 z m 23.821233,0.50591 c 0,-0.054 -0.238125,-0.0359 -0.529167,0.0402 -0.291041,0.0761 -0.529166,0.24775 -0.529166,0.38142 0,0.13426 0.236823,0.11629 0.529166,-0.0402 0.291042,-0.15576 0.529167,-0.3274 0.529167,-0.38141 z m 1.315254,0.10649 c -0.503126,-0.31819 -1.050671,-0.32239 -1.050671,-0.008 0,0.24205 1.071552,0.52336 1.315255,0.34528 0.06855,-0.0501 -0.05052,-0.20183 -0.264584,-0.33721 z m 2.43977,-1.18029 c 0.28915,-0.58208 0.80443,-1.35599 1.14508,-1.71979 0.5407,-0.57746 0.57729,-0.73932 0.28815,-1.27462 -0.31606,-0.58517 -0.36545,-0.53078 -1.08124,1.19062 -0.41253,0.99208 -0.85052,1.9169 -0.97332,2.05515 -0.1228,0.13824 -0.21388,0.55496 -0.20239,0.92604 0.012,0.38828 0.0797,0.50621 0.15945,0.27781 0.0762,-0.21828 0.37513,-0.87313 0.66427,-1.45521 z m 11.377485,0.21003 c 0.37361,-0.46056 0.022,-0.87149 -0.74572,-0.87149 -0.36478,0 -0.895115,-0.12409 -1.178525,-0.27576 -0.31364,-0.16786 -0.68017,-0.18349 -0.93667,-0.0399 -0.33999,0.19027 -0.16041,0.39642 0.92954,1.06708 0.743025,0.45718 1.364765,0.98117 1.381645,1.16442 0.0169,0.18324 0.0892,0.0951 0.16076,-0.196 0.0715,-0.29104 0.24657,-0.67277 0.38897,-0.8483 z m -16.274686,0.13724 c -0.08446,-0.21107 -0.147156,-0.14838 -0.159851,0.15985 -0.01148,0.27891 0.05104,0.43518 0.138965,0.34727 0.08792,-0.0879 0.09732,-0.31613 0.02088,-0.50712 z m 1.87729,-0.17314 c 0.243911,-0.15478 0.142145,-0.30398 -0.364921,-0.53502 -0.963896,-0.43918 -0.583414,-0.71767 0.415314,-0.30398 0.650126,0.26929 0.881353,0.26693 1.217977,-0.0124 0.365305,-0.30318 0.293352,-0.41878 -0.595553,-0.95688 -0.55608,-0.33663 -1.308711,-0.60744 -1.672513,-0.60179 -0.538163,0.008 -0.469268,0.0787 0.369617,0.37771 1.02893,0.36669 2.118987,1.19682 1.571559,1.19682 -0.158885,0 -0.437102,-0.1786 -0.61826,-0.39688 -0.431535,-0.51997 -2.231469,-0.5485 -2.033357,-0.0322 0.07696,0.20055 0.0063,0.49821 -0.156901,0.66146 -0.219379,0.21938 -0.02413,0.30499 0.748279,0.32813 1.014807,0.0304 1.022094,0.0372 0.251354,0.23328 -0.732263,0.18633 -0.74251,0.20408 -0.132291,0.22923 0.363802,0.015 0.813665,-0.0693 0.999696,-0.18739 z m 2.439891,-1.37058 c 0,-0.4173 -2.407167,-1.84626 -3.110128,-1.84626 -0.805082,0 -0.539578,0.43713 0.40118,0.6605 0.398512,0.0946 1.141288,0.4541 1.650611,0.79885 1.097377,0.74279 1.058337,0.72852 1.058337,0.38691 z m -0.0443,-2.02958 c -0.790449,-0.84629 -1.879992,-1.41155 -2.654494,-1.37717 -0.499912,0.0222 -0.455057,0.0762 0.251444,0.30286 1.174988,0.37693 1.086498,0.78497 -0.132291,0.61002 -0.756434,-0.10857 -0.83461,-0.0895 -0.329018,0.0802 1.144498,0.38418 2.228691,1.02041 2.777039,1.62964 l 0.52854,0.58722 0.0879,-0.58603 c 0.0516,-0.34403 -0.16689,-0.85887 -0.52916,-1.24673 z m -0.683258,0.17508 c -0.327422,-0.13161 -0.595313,-0.30266 -0.595313,-0.38011 0,-0.2568 0.421095,-0.14606 0.941618,0.24765 0.585343,0.44273 0.503493,0.47403 -0.346305,0.13246 z m -30.829471,0.90672 c -0.08792,-0.0879 -0.316122,-0.0973 -0.507118,-0.0209 -0.211067,0.0845 -0.148372,0.14715 0.159853,0.15985 0.278915,0.0115 0.435184,-0.051 0.347265,-0.13897 z m 2.369538,-0.1487 c 0.409656,-0.16971 0.824204,-0.31854 0.921218,-0.33073 0.52977,-0.0666 0.456968,-0.41602 -0.116672,-0.55999 -0.403196,-0.1012 -0.999225,0.007 -1.51683,0.27422 -0.613011,0.317 -0.933337,0.36023 -1.139747,0.15382 -0.157904,-0.1579 -0.390853,-0.2871 -0.517664,-0.2871 -0.126811,0 -0.03618,0.19439 0.201401,0.43197 0.358222,0.35822 0.549727,0.37831 1.121759,0.11768 0.612641,-0.27914 0.651596,-0.26827 0.348285,0.0972 -0.408736,0.49249 -0.285849,0.51061 0.69825,0.10293 z m -7.330269,-0.3593 c -0.184076,-0.22179 -0.403566,-0.33438 -0.487756,-0.25019 -0.08419,0.0842 0.02208,0.26384 0.236141,0.39921 0.560115,0.35423 0.633301,0.31089 0.251615,-0.14902 z m 3.055015,-0.0748 c -0.08146,-0.0815 -0.294955,-1.7e-4 -0.474431,0.18065 -0.259363,0.26131 -0.228972,0.2917 0.148112,0.14811 0.260938,-0.0994 0.407782,-0.2473 0.326319,-0.32876 z m -8.870542,-0.31569 c 0,-0.29104 -0.12609,-0.52916 -0.280199,-0.52916 -0.154109,0 -0.19873,0.13181 -0.09916,0.29292 0.124415,0.20131 -0.01553,0.23164 -0.447406,0.097 -1.358485,-0.42362 -1.885589,-0.67615 -1.731957,-0.82978 0.08828,-0.0883 0.525325,-0.009 0.97122,0.1753 1.254255,0.51953 1.224744,0.12962 -0.04792,-0.63308 -0.62849,-0.37666 -0.957481,-0.68595 -0.731092,-0.68733 0.22639,-0.001 0.804952,0.28769 1.285693,0.64237 0.680555,0.5021 0.948312,0.57553 1.209376,0.33165 0.184415,-0.17226 0.260697,-0.51298 0.169515,-0.75714 -0.213058,-0.57052 -1.287159,-1.80688 -1.569742,-1.80688 -0.373623,0 -1.592201,1.4211 -1.886502,2.20003 -0.401154,1.06174 -0.356936,1.23804 0.313897,1.25148 0.327422,0.007 0.9525,0.17549 1.389062,0.37539 1.120131,0.5129 1.455209,0.48464 1.455209,-0.12274 z m -1.190625,-2.11666 c -0.418254,-0.43657 -0.641398,-0.79375 -0.495878,-0.79375 0.145521,0 0.606791,0.35718 1.025044,0.79375 0.418254,0.43656 0.641398,0.79375 0.495878,0.79375 -0.145521,0 -0.606791,-0.35719 -1.025044,-0.79375 z m 11.310937,2.4706 c -0.181901,-0.0734 -0.479557,-0.0734 -0.661458,0 -0.181901,0.0734 -0.03307,0.13346 0.330729,0.13346 0.363802,0 0.51263,-0.0601 0.330729,-0.13346 z m 41.107925,-1.24762 c 0.65722,-2.58653 0.66179,-3.27612 0.0263,-3.97809 -0.76033,-0.8399 -3.91063,-2.07974 -4.74945,-1.86921 -0.66006,0.16566 -1.5159,0.33623 -1.86022,0.37074 -0.11109,0.0111 -0.0298,0.43241 0.18071,0.93616 0.58211,1.3932 0.7983,3.25624 0.42944,3.70069 -0.17276,0.20817 -0.27574,0.7131 -0.22884,1.12208 0.0815,0.71083 0.16105,0.7506 1.80505,0.90224 0.94589,0.0872 2.24838,0.14678 2.89443,0.13229 l 1.17464,-0.0263 0.32792,-1.29056 z m -44.257769,0.74998 c -0.08617,-0.22456 -0.213419,-0.35154 -0.282774,-0.28219 -0.06935,0.0694 -0.04762,0.25309 0.0483,0.40829 0.260893,0.42213 0.41338,0.34013 0.234473,-0.1261 z m 8.489066,0.17378 c 0.07971,-0.12897 -0.09866,-0.2982 -0.396381,-0.37606 -0.443957,-0.11609 -0.485181,-0.0739 -0.229211,0.23451 0.365374,0.44025 0.431713,0.45526 0.625592,0.14155 z m -6.377947,-0.66567 c 0.214007,-0.55769 -0.06441,-0.6857 -0.781118,-0.35915 -0.468468,0.21345 -0.550925,0.35093 -0.304332,0.50742 0.509156,0.3231 0.926442,0.2661 1.08545,-0.14827 z m -1.91786,-0.48889 c 0.844552,-0.32742 1.586332,-0.78533 1.6484,-1.01758 0.06207,-0.23224 0.653936,-0.6842 1.315262,-1.00434 1.009474,-0.48868 1.734282,-1.23363 1.45436,-1.49477 -0.03981,-0.0371 -1.02232,0.20766 -2.183365,0.54398 -2.281343,0.66085 -2.678488,0.60009 -3.413889,-0.52227 -0.514786,-0.78566 -1.221995,-0.88932 -1.221995,-0.17912 0,0.67115 1.218622,1.84039 2.2213,2.1313 l 0.821408,0.23831 -0.821261,0.0239 c -0.529256,0.0154 -1.070183,-0.20683 -1.521354,-0.62496 -0.677942,-0.6283 -1.020646,-0.57131 -0.385272,0.0641 0.367574,0.36758 0.522979,1.11393 0.231941,1.11393 -0.334955,0 -1.137105,-1.00988 -0.99053,-1.24704 0.19596,-0.31707 -0.457764,-2.97393 -0.980429,-3.98466 -0.573709,-1.10942 -0.308729,-1.10498 0.368763,0.006 0.3079,0.50499 0.524697,0.68268 0.525278,0.43051 0.0016,-0.70628 -1.026901,-2.8096 -1.45405,-2.97352 -0.474016,-0.18189 -0.531197,0.3848 -0.08395,0.83204 0.1722,0.1722 0.230501,0.39568 0.129558,0.49663 -0.100943,0.10094 -0.345808,-0.0384 -0.544146,-0.30964 -0.344881,-0.47165 -0.369261,-0.46592 -0.558857,0.13145 -0.137595,0.43352 -0.07494,0.71477 0.204796,0.91932 0.572198,0.4184 2.043059,2.9823 2.043059,3.56131 0,0.26682 -0.18364,0.63753 -0.408089,0.82381 -0.28312,0.23497 -0.323632,0.42314 -0.132292,0.61448 0.151689,0.15169 0.275797,0.49011 0.275797,0.75205 0,0.26193 0.165856,0.47625 0.368568,0.47625 0.202712,0 0.4371,0.17859 0.520863,0.39687 0.20829,0.5428 0.770075,0.49942 2.57013,-0.19844 z m -0.678768,-0.73192 c 0.0914,-0.14789 0.277024,-0.20039 0.41249,-0.11667 0.366988,0.22681 0.298558,0.38557 -0.166189,0.38557 -0.22687,0 -0.337705,-0.121 -0.246301,-0.2689 z m 3.833791,1.06265 c 0,-0.14552 -0.119063,-0.26458 -0.264584,-0.26458 -0.145521,0 -0.264583,0.11906 -0.264583,0.26458 0,0.14552 0.119062,0.26459 0.264583,0.26459 0.145521,0 0.264584,-0.11907 0.264584,-0.26459 z m 1.322916,-0.29289 c 0,-0.12995 -0.178593,-0.23627 -0.396875,-0.23627 -0.218281,0 -0.396875,0.17485 -0.396875,0.38857 0,0.23669 0.155123,0.32904 0.396875,0.23627 0.218282,-0.0838 0.396875,-0.25861 0.396875,-0.38857 z m 30.798821,-0.008 c -0.560933,-0.62955 -1.954065,-1.29262 -2.678343,-1.27479 -0.259337,0.006 -0.03569,0.16729 0.496985,0.35756 0.532678,0.19027 1.306584,0.59799 1.719792,0.90605 0.961456,0.71678 1.093106,0.71998 0.461566,0.0112 z M 59.944908,171.6736 c 0,-0.29104 -0.106324,-0.52917 -0.236276,-0.52917 -0.297402,0 -0.574817,0.68821 -0.362855,0.90017 0.318495,0.3185 0.599131,0.14472 0.599131,-0.371 z m 0.870412,0 c 0.07611,-0.29104 0.03047,-0.52917 -0.101433,-0.52917 -0.131897,0 -0.239813,0.23813 -0.239813,0.52917 0,0.29104 0.04564,0.52916 0.101433,0.52916 0.05579,0 0.163704,-0.23812 0.239813,-0.52916 z m 0.808389,0.12088 c -0.08617,-0.22456 -0.213419,-0.35154 -0.282773,-0.28219 -0.06936,0.0694 -0.04762,0.25309 0.0483,0.40829 0.260892,0.42213 0.413379,0.34012 0.234472,-0.1261 z m 28.576686,-0.26019 c -0.20584,-0.53642 -2.377186,-1.7955 -2.801604,-1.62454 -0.233772,0.0942 -0.214921,0.14283 0.06278,0.16208 0.218282,0.0151 0.932657,0.43827 1.5875,0.94031 1.383814,1.0609 1.352634,1.04675 1.151324,0.52215 z m 0.57554,-0.37618 c -0.42145,-0.815 -1.952341,-2.13035 -2.479439,-2.13035 -0.168166,0 -0.305755,-0.11906 -0.305755,-0.26458 0,-0.66595 1.669544,0.189 2.571274,1.3167 0.17727,0.2217 0.32214,0.28403 0.32193,0.13851 -8e-4,-0.49855 -1.00238,-1.46603 -1.910777,-1.84558 -0.877073,-0.36646 -0.918742,-0.35673 -1.209974,0.28245 -0.393912,0.86454 -0.419854,0.81188 0.489564,0.99376 0.437666,0.0875 1.235667,0.63027 1.785937,1.21466 0.54712,0.58103 1.02758,1.06049 1.06769,1.06546 0.0401,0.005 -0.10858,-0.34199 -0.33045,-0.77103 z m -42.208111,-0.0486 c 0,-0.41599 -1.081974,-2.14834 -1.575728,-2.52289 -0.297432,-0.22563 -0.501717,-0.23037 -0.758092,-0.0176 -0.281416,0.23355 -0.222932,0.35833 0.295193,0.6298 0.355376,0.1862 0.845972,0.75967 1.090213,1.27437 0.428861,0.90375 0.948414,1.25234 0.948414,0.63631 z m 10.625615,-0.26301 c 0.2768,-0.14138 0.387662,-0.42122 0.29987,-0.75694 -0.164198,-0.6279 -0.118641,-0.61878 -1.057306,-0.21164 -1.202657,0.52165 -1.93556,1.04456 -1.791267,1.27803 0.151235,0.24471 1.873091,0.0357 2.548703,-0.30945 z m -10.245858,-1.51978 c -0.512085,-1.27983 -1.677139,-2.35588 -1.994597,-1.84222 -0.120624,0.19517 0.116693,0.68589 0.595351,1.23105 0.43776,0.49858 0.926343,1.19275 1.08574,1.54258 0.500932,1.09943 0.786555,0.25085 0.313506,-0.93141 z m 13.739342,0.89297 c -0.155885,-0.40622 -0.483896,-0.53933 -1.982194,-0.80435 -0.906439,-0.16033 -0.953163,-0.13418 -0.837877,0.4689 0.109874,0.57476 0.264372,0.64243 1.543616,0.67609 1.133145,0.0298 1.392092,-0.0393 1.276455,-0.34064 z m 1.206422,-1.19193 c 0.01635,-0.64055 -0.04502,-0.66398 -1.941615,-0.74143 -1.077173,-0.044 -2.02663,0.0303 -2.109905,0.165 -0.08327,0.13475 0.566344,0.3862 1.443595,0.55879 1.347019,0.26501 1.638719,0.42447 1.876177,1.02561 0.263536,0.66717 0.294775,0.67863 0.49802,0.18266 0.119267,-0.29104 0.224444,-0.82682 0.233728,-1.19063 z m -13.738021,0.58097 c 0,-0.3281 -1.445278,-2.52278 -1.915631,-2.90892 -0.730858,-0.6 -0.874427,0.20162 -0.149643,0.83554 0.356156,0.3115 0.873152,0.95333 1.148879,1.42627 0.471623,0.80895 0.916395,1.12303 0.916395,0.64711 z m 40.826971,-0.63775 c -0.48068,-0.82304 -2.084409,-1.99689 -2.356475,-1.72482 -0.07356,0.0736 0.295315,0.39892 0.819725,0.72302 0.52441,0.3241 1.13968,0.87346 1.36726,1.2208 0.61316,0.9358 0.74468,0.76586 0.16949,-0.219 z m 0.5136,-0.67395 c -0.47147,-1.10583 -1.5091,-1.94428 -2.12992,-1.72108 -0.203365,0.0731 0.0135,0.30269 0.52917,0.56024 0.48054,0.24 1.109,0.87577 1.39656,1.41283 0.67982,1.26964 0.79326,1.12964 0.20419,-0.25199 z m -41.215327,-0.54536 c -1.008157,-1.83327 -1.374232,-2.24847 -1.828681,-2.07409 -0.334539,0.12838 -0.285449,0.28547 0.279079,0.89309 0.376763,0.40551 0.91547,1.18799 1.197127,1.73883 0.281657,0.55085 0.6293,0.92911 0.77254,0.84058 0.153789,-0.0951 -0.01823,-0.66769 -0.420065,-1.39841 z m 20.297208,0.50601 c 0.972204,-0.27803 2.757763,-0.9239 3.967909,-1.43528 1.210146,-0.51138 3.033702,-1.25052 4.052348,-1.64254 1.018646,-0.39202 2.804583,-1.2024 3.96875,-1.80084 1.164166,-0.59844 2.150271,-1.1041 2.191342,-1.12368 0.04107,-0.0196 -0.146949,-0.61716 -0.417827,-1.32794 -0.294997,-0.77409 -0.633532,-1.26021 -0.84418,-1.21223 -0.193421,0.0441 -0.4441,-0.0694 -0.557061,-0.25221 -0.161949,-0.26204 -0.507733,-0.23701 -1.635001,0.11833 -0.786289,0.24785 -1.620486,0.45065 -1.853769,0.45065 -0.66667,0 -0.719865,0.3318 -0.288896,1.80198 0.335167,1.14336 0.475356,1.33222 0.845267,1.13873 0.243901,-0.12758 1.306661,-0.54122 2.361687,-0.91919 1.533729,-0.54948 1.918229,-0.61049 1.918229,-0.30435 0,0.23164 -0.156771,0.32272 -0.396875,0.23059 -0.218281,-0.0838 -0.396875,-0.0205 -0.396875,0.14059 0,0.16109 -0.178593,0.2929 -0.396875,0.2929 -0.218281,0 -0.396875,0.12708 -0.396875,0.28241 0,0.16317 -0.226226,0.21061 -0.535813,0.11235 -0.347837,-0.1104 -0.510275,-0.0591 -0.46302,0.14617 0.04023,0.17478 -0.637265,0.57405 -1.514708,0.89265 -0.873125,0.31703 -2.182813,0.85543 -2.910417,1.19645 -1.055219,0.49456 -4.769885,1.86788 -5.052404,1.86788 -0.07017,0 -0.423391,-1.46922 -0.508881,-2.11667 -0.22474,-1.70201 -2.253853,-5.16453 -3.485716,-5.9481 l -0.742582,-0.47235 0.828148,0.89513 c 0.45548,0.49231 0.965684,1.16301 1.133787,1.49043 0.254768,0.49622 0.235435,0.59531 -0.116157,0.59531 -0.231989,0 -0.360405,-0.0993 -0.285366,-0.22075 0.209404,-0.33883 -2.077972,-2.46031 -2.506163,-2.3244 -0.207441,0.0658 -0.687964,0.18728 -1.067828,0.26986 l -0.690662,0.15016 0.998503,1.04965 c 0.895835,0.94172 1.096072,1.03381 1.947432,0.89565 0.570013,-0.0925 0.948931,-0.0461 0.948931,0.11627 0,0.3794 -1.940433,0.57623 -2.178762,0.221 -0.106913,-0.15935 -0.19621,-0.19542 -0.198438,-0.0802 -0.0021,0.11527 -0.461865,-0.27168 -1.021417,-0.8599 -0.933053,-0.98084 -1.920872,-1.49206 -1.468386,-0.75992 0.131641,0.213 0.04232,0.25237 -0.286392,0.12623 -0.381936,-0.14656 -0.417618,-0.11091 -0.177991,0.17782 0.164841,0.19862 0.211447,0.45856 0.103569,0.57764 -0.107878,0.11909 -0.06323,0.1407 0.09923,0.048 0.362123,-0.20654 0.920778,0.40561 1.645828,1.80343 0.301927,0.58208 0.55422,0.96312 0.560651,0.84675 0.02018,-0.36514 -0.820128,-1.87903 -1.387312,-2.49935 -0.539149,-0.58967 -0.492823,-1.08026 0.06921,-0.73291 0.81735,0.50515 1.61117,2.39839 2.128775,5.07705 0.30445,1.57558 0.602683,3.01353 0.662733,3.19543 0.155162,0.47001 1.305491,0.41 3.350326,-0.17477 z m -2.820844,-0.5418 c -0.07294,-0.11802 -0.247846,-0.97246 -0.388681,-1.89875 -0.140835,-0.92628 -0.333672,-2.11341 -0.428525,-2.63805 -0.153278,-0.8478 -0.103084,-0.97248 0.451255,-1.12087 0.343046,-0.0918 1.067459,-0.16859 1.609807,-0.17058 1.02317,-0.004 1.519428,0.45822 1.914607,1.78233 0.274945,0.92124 -0.279601,0.70249 -0.670764,-0.26459 -0.448466,-1.10876 -0.540964,-1.16075 -1.843987,-1.03649 -0.970393,0.0925 -1.075578,0.16789 -0.934741,0.6696 0.08728,0.31093 0.29495,1.4116 0.461481,2.44593 l 0.302781,1.88061 1.347476,-0.41328 c 0.741111,-0.22731 1.375203,-0.42662 1.409096,-0.44292 0.03389,-0.0163 -0.05337,-0.43059 -0.193913,-0.92064 -0.311822,-1.08725 -0.119099,-1.40603 0.255069,-0.4219 0.655495,1.72408 0.63731,1.98406 -0.161237,2.30509 -0.936728,0.37658 -2.950847,0.53393 -3.129724,0.24451 z m 15.912282,-6.802 c -0.09701,-0.097 -0.17639,-0.29942 -0.17639,-0.44979 0,-0.16579 0.123235,-0.15017 0.31309,0.0397 0.172201,0.1722 0.251576,0.3746 0.176389,0.44979 -0.07519,0.0752 -0.216077,0.0573 -0.313089,-0.0397 z m -27.534101,7.34054 c 0.421898,-0.13429 1.213571,-0.31828 1.759274,-0.40886 1.147171,-0.19042 1.191632,-0.38753 0.547973,-2.42945 -0.406221,-1.28868 -0.525024,-1.42434 -1.389062,-1.58613 -0.519667,-0.0973 -1.316679,-0.33211 -1.771138,-0.52178 -0.454459,-0.18968 -0.900944,-0.27021 -0.992188,-0.17897 -0.09124,0.0912 -0.165898,0.0459 -0.165898,-0.10084 0,-0.17085 -0.451756,-0.19237 -1.25677,-0.0599 -0.691224,0.11378 -1.403047,0.21397 -1.581828,0.22264 -0.398741,0.0194 0.113506,1.34489 0.650215,1.68257 0.184965,0.11637 0.3363,0.39519 0.3363,0.61961 0,0.56595 2.154193,2.97876 2.672497,2.99334 0.232947,0.007 0.768728,-0.098 1.190625,-0.23226 z m 7.513961,-1.3261 c 0,-0.42709 -0.122393,-1.09844 -0.271986,-1.4919 -0.339634,-0.8933 -0.205171,-1.02904 0.942795,-0.95173 1.143001,0.077 1.179535,-0.29186 0.191014,-1.92843 -0.502375,-0.83172 -0.901835,-1.20141 -1.298147,-1.20141 -0.780009,0 -0.523374,1.00834 0.3402,1.33667 0.647813,0.2463 0.833794,0.88449 0.34567,1.18617 -0.613944,0.37944 -1.577165,-0.17189 -2.103789,-1.20415 -0.295769,-0.57976 -0.641214,-1.0541 -0.767656,-1.0541 -0.265895,0 -0.97535,0.62675 -1.836344,1.62228 -0.560238,0.64777 -0.576257,0.75827 -0.23014,1.5875 0.204607,0.49019 0.455622,1.33774 0.557812,1.88344 l 0.185799,0.99219 h 1.972386 1.972386 z m 35.652191,0.13041 c -0.25444,-0.18604 -0.46261,-0.47396 -0.46261,-0.63982 0,-0.16586 -0.11233,-0.30156 -0.24962,-0.30156 -0.1373,0 -0.46062,-0.35719 -0.71851,-0.79375 -0.5427,-0.91873 -0.77056,-1.00271 -0.77056,-0.28401 0,0.28036 0.0983,0.44897 0.21849,0.3747 0.12018,-0.0743 0.14861,0.14343 0.0632,0.48377 -0.1328,0.52909 0.009,0.69576 0.98158,1.14967 1.21047,0.56522 1.703895,0.57101 0.93804,0.011 z M 73.73869,165.5463 c 1.239986,-0.37151 1.289116,-0.82003 0.201152,-1.83634 -0.931196,-0.86986 -0.660321,-1.04477 0.366797,-0.23684 l 0.674762,0.53077 -0.292754,-0.77559 c -0.277288,-0.73463 -0.36694,-0.77276 -1.697413,-0.72196 -1.184256,0.0452 -1.40466,-0.0194 -1.40466,-0.4116 0,-0.48723 1.032944,-0.89878 1.642293,-0.65432 0.188145,0.0755 0.08122,0.14664 -0.237614,0.15813 -0.318834,0.0115 -0.645417,0.12722 -0.725739,0.25718 -0.340633,0.55116 1.831379,-0.25504 2.339065,-0.8682 0.593783,-0.71715 2.009079,-1.22414 2.009079,-0.71969 0,0.16129 0.117136,0.29326 0.260302,0.29326 0.143166,0 0.06576,-0.40796 -0.172016,-0.90658 l -0.432321,-0.90659 -0.952463,0.76095 c -0.866566,0.69233 -2.56825,1.2743 -3.399856,1.16274 -0.916546,-0.12296 -0.902672,-0.20164 0.06615,-0.3751 l 1.058334,-0.18949 -1.124479,-0.0376 c -0.638676,-0.0213 -1.12448,0.0835 -1.12448,0.24265 0,0.15411 -0.117459,0.2076 -0.261019,0.11888 -0.162788,-0.10061 -0.179737,0.018 -0.04504,0.31511 0.118787,0.26204 0.432898,0.98245 0.698026,1.60092 0.277636,0.64763 0.661382,1.12619 0.904939,1.12853 0.27418,0.003 0.318299,0.0724 0.125465,0.19843 -0.382669,0.25011 0.01839,1.38656 0.487334,1.38096 0.253984,-0.003 0.246435,-0.0628 -0.03003,-0.23788 -0.227472,-0.14403 -0.298209,-0.41904 -0.184202,-0.71614 0.144928,-0.37767 0.232441,-0.40567 0.403399,-0.12905 0.181242,0.29325 0.242811,0.29199 0.3625,-0.007 0.118267,-0.29585 0.195289,-0.28934 0.428573,0.0362 0.455038,0.63501 0.206467,1.1839 -0.577102,1.27434 -0.398938,0.046 -0.725342,0.19487 -0.725342,0.33073 0,0.31639 0.121664,0.31107 1.358366,-0.0595 z m 27.79693,-0.0531 c 0.29075,-0.012 0.639,-0.51758 0.99219,-1.4405 0.63247,-1.65275 0.63034,-1.63955 0.26399,-1.63955 -0.15411,0 -0.21191,0.11049 -0.12845,0.24553 0.0835,0.13504 -0.1088,0.32823 -0.42725,0.4293 -0.3992,0.1267 -0.68182,0.0431 -0.91013,-0.2691 -0.28759,-0.3933 -0.35558,-0.28996 -0.51689,0.78573 -0.19665,1.31139 -0.27101,1.34433 -1.838135,0.81426 -0.51343,-0.17366 -0.51412,-0.16877 -0.0232,0.16442 0.27827,0.18887 0.69499,0.54174 0.92604,0.78416 0.231055,0.24242 0.598695,0.37404 0.816975,0.29248 0.21828,-0.0815 0.59847,-0.15658 0.84487,-0.16673 z m -25.716823,-1.23009 c -0.624031,-1.16601 0.395496,-2.6146 1.615609,-2.29554 0.558742,0.14612 0.568619,0.13284 0.341519,-0.45897 -0.208026,-0.54211 -2.033413,-0.56605 -2.476241,-0.0325 -0.197353,0.2378 -0.254241,0.72041 -0.148145,1.25677 0.221885,1.12171 0.705702,2.37675 0.85766,2.2248 0.06496,-0.065 -0.02072,-0.37753 -0.190402,-0.69459 z m 0.755295,-0.22756 c -0.406135,-0.65032 -0.11412,-1.35796 0.56038,-1.35796 0.58747,0 0.776422,0.93458 0.226041,1.11804 -0.177985,0.0593 -0.22276,0.24728 -0.1045,0.43863 0.2589,0.41891 1.031201,-0.95065 0.830707,-1.47313 -0.167052,-0.43533 -1.260202,-0.4552 -1.684779,-0.0306 -0.342241,0.34224 -0.428593,1.3353 -0.14111,1.62278 0.379087,0.37909 0.605205,0.14974 0.313261,-0.31773 z m 23.718458,-0.89494 c 0.31527,-1.56641 0.41665,-1.74764 1.13786,-2.03409 l 0.71549,-0.28418 -0.78035,0.15215 c -0.42919,0.0837 -1.03612,0.42814 -1.34873,0.76546 -0.312625,0.33731 -0.949415,0.69698 -1.415115,0.79927 -0.72097,0.15835 -0.79709,0.24577 -0.51253,0.58864 0.34347,0.41386 1.17239,0.82619 1.7206,0.85587 0.17034,0.009 0.387585,-0.37018 0.482775,-0.84312 z m -21.291395,-0.13229 c -0.12174,-0.40018 -0.412356,-1.25219 -0.645814,-1.89336 -0.233458,-0.64116 -0.39343,-1.18884 -0.355497,-1.21707 0.03794,-0.0282 1.123257,-0.31153 2.411831,-0.62955 1.928254,-0.4759 2.415416,-0.51804 2.752865,-0.23813 0.369811,0.30675 0.369745,0.26221 -7.94e-4,-0.45429 -0.225869,-0.4369 -0.690753,-1.03222 -1.033073,-1.32291 l -0.622274,-0.52855 0.463021,0.55 c 0.254662,0.3025 0.463021,0.61828 0.463021,0.70173 0,0.21801 -1.485784,0.73523 -3.175,1.10523 l -1.455208,0.31875 -0.990201,-1.07327 c -0.54461,-0.5903 -0.918826,-0.86491 -0.831588,-0.61025 0.08724,0.25466 0.264935,0.46302 0.394888,0.46302 0.12995,0 0.236276,0.12143 0.236276,0.26984 0,0.14842 0.298082,0.74204 0.662405,1.31916 0.364321,0.57712 0.870336,1.70421 1.124479,2.50464 0.254141,0.80043 0.54306,1.45697 0.642041,1.45897 0.09898,0.002 0.08036,-0.32378 -0.04138,-0.72396 z M 58.716154,162.7613 c 0.838622,-1.04973 0.946589,-1.48686 0.494503,-2.00208 -0.385587,-0.43944 -0.42541,-0.43603 -0.777471,0.0666 -0.204087,0.29137 -0.297048,0.64954 -0.206579,0.79592 0.190278,0.30788 -0.518432,1.11221 -0.763793,0.86685 -0.09008,-0.0901 -0.16379,-0.0249 -0.16379,0.14489 0,0.16978 -0.0893,0.29458 -0.198437,0.27735 -0.751097,-0.11859 -0.808809,0.13959 -0.06615,0.29592 0.509323,0.1072 0.968437,0.21059 1.020255,0.22975 0.05182,0.0192 0.349473,-0.28469 0.661458,-0.67521 z m 4.469849,0.43721 c -0.327421,-0.13161 -0.595312,-0.38203 -0.595312,-0.55649 0,-0.17447 -0.0765,-0.24071 -0.169995,-0.14721 -0.257938,0.25793 0.440589,0.97882 0.929996,0.95976 0.291411,-0.0113 0.23817,-0.0941 -0.164689,-0.25606 z m 51.507397,-0.21858 c 0.34318,-0.64123 -0.13112,-2.41901 -0.64538,-2.41901 -0.23767,0 -0.31572,0.15743 -0.21202,0.42766 0.13849,0.36092 0.0781,0.38161 -0.38727,0.13257 -0.30325,-0.1623 -0.63314,-0.55273 -0.73308,-0.86763 -0.16206,-0.5106 -0.20863,-0.52446 -0.43041,-0.12816 -0.13679,0.24442 -0.17898,0.88889 -0.0938,1.43217 0.24667,1.5726 1.91418,2.52063 2.50193,1.4224 z m -18.307695,-0.46219 c -0.0879,-0.0879 -0.31613,-0.0973 -0.50712,-0.0209 -0.21107,0.0845 -0.14838,0.14715 0.15985,0.15985 0.27891,0.0115 0.43518,-0.0511 0.34727,-0.13897 z m 1.32291,-0.26459 c -0.0879,-0.0879 -0.31612,-0.0973 -0.50712,-0.0209 -0.21106,0.0845 -0.14837,0.14716 0.15986,0.15986 0.27891,0.0115 0.43518,-0.0511 0.34726,-0.13897 z m 0.59229,-1.02647 c 1.42586,-0.71805 2.367695,-0.98261 4.261975,-1.1972 3.06696,-0.34743 3.95457,-0.77213 1.63734,-0.78343 -2.73544,-0.0133 -5.208615,0.76161 -7.259515,2.27472 -1.1806,0.87102 -0.78246,0.78494 1.3602,-0.29409 z m 0.66812,0.39561 c 0.0927,-0.14999 -0.0135,-0.19434 -0.24897,-0.10399 -0.45837,0.17589 -0.54223,0.36554 -0.16165,0.36554 0.13694,0 0.32172,-0.1177 0.41062,-0.26155 z m 4.367505,-0.10702 c 0,-0.25099 -0.792,-0.37749 -0.93318,-0.14904 -0.086,0.13916 0.0888,0.25303 0.3884,0.25303 0.29963,0 0.54478,-0.0468 0.54478,-0.10399 z m -46.111174,-1.15703 c 0.302164,-0.69096 0.351814,-2.69417 0.07367,-2.97232 -0.07276,-0.0728 -0.263513,-0.37041 -0.423896,-0.66146 -0.160383,-0.29104 -0.577101,-0.55316 -0.926042,-0.58249 -0.633127,-0.0532 -0.633071,-0.0529 0.02702,0.14422 0.47228,0.14105 0.661458,0.38331 0.661458,0.84708 0,0.91304 -1.093745,1.06884 -1.440077,0.20512 -0.2203,-0.5494 -0.2476,-0.55831 -0.259757,-0.0848 -0.0075,0.29104 0.275735,1.03518 0.629348,1.65365 0.353611,0.61846 0.54535,1.12448 0.426084,1.12448 -0.350467,0 -0.910521,-0.78664 -1.391336,-1.95423 -0.336207,-0.81643 -0.451932,-0.93762 -0.463021,-0.48486 -0.01829,0.74662 -0.667989,1.03212 -1.252681,0.55046 -0.266406,-0.21946 -0.18751,0.0263 0.201807,0.62858 0.351569,0.5439 0.788044,0.99039 0.969946,0.99219 0.283839,0.003 0.418506,0.2818 0.384717,0.79702 -0.0048,0.0728 0.362799,0.14621 0.816824,0.16322 0.454024,0.017 0.86824,0.15915 0.920479,0.31587 0.153061,0.45918 0.703474,0.10025 1.045457,-0.68177 z m 60.530964,0.46727 c 0.26339,-0.29105 0.41936,-0.52917 0.3466,-0.52917 -0.0728,0 -0.34779,0.23812 -0.61118,0.52917 -0.26339,0.29104 -0.41936,0.52916 -0.3466,0.52916 0.0728,0 0.34779,-0.23812 0.61118,-0.52916 z m -20.769795,-0.11507 c 0,-0.0633 -0.1252,-0.44438 -0.27823,-0.84687 -0.35942,-0.94534 0.089,-2.8652 0.90456,-3.87278 0.32662,-0.40353 1.17796,-0.9554 1.89187,-1.2264 1.452155,-0.55122 1.993265,-1.22164 0.748845,-0.92779 -0.944605,0.22306 -2.737875,1.19334 -2.737875,1.48138 0,0.11872 -0.18563,0.21586 -0.41249,0.21586 -0.22687,0 -0.34673,0.10641 -0.26634,0.23647 0.0804,0.13007 -0.007,0.63608 -0.19521,1.12448 -0.18775,0.48841 -0.32835,1.24519 -0.31245,1.68176 0.0662,1.81743 0.14156,2.24896 0.39274,2.24896 0.14552,0 0.26458,-0.0518 0.26458,-0.11507 z m -36.721981,-0.32843 c -0.265189,-0.1064 -0.271625,-0.22165 -0.02872,-0.51433 0.253299,-0.30521 0.230158,-0.3454 -0.121249,-0.21055 -0.640341,0.24572 -0.480704,0.93288 0.205111,0.8829 0.157648,-0.0115 0.132834,-0.0826 -0.05514,-0.15802 z m 1.664689,-0.0857 c 0.510179,-0.21923 0.508366,-0.22806 -0.05053,-0.24598 -0.318834,-0.0102 -0.653282,0.10046 -0.743219,0.24598 -0.193411,0.31295 0.06549,0.31295 0.793749,0 z m 8.863541,-0.50439 c 0,-0.1319 0.23861,-0.17742 0.530241,-0.10116 1.352368,0.35366 4.177454,-1.02044 3.884634,-1.88945 -0.167577,-0.49733 -3.898432,-0.17144 -4.877896,0.42608 -1.002585,0.61163 -1.077962,0.90572 -0.295769,1.15398 0.443148,0.14065 0.485703,0.22871 0.198437,0.41065 -0.290023,0.18368 -0.269883,0.23244 0.09733,0.23566 0.254662,0.002 0.463021,-0.10387 0.463021,-0.23576 z m -8.400521,-0.3477 c -0.327421,-0.15791 -0.595312,-0.43688 -0.595312,-0.61995 0,-0.18306 -0.506016,-0.58044 -1.124479,-0.88306 -0.68879,-0.33703 -1.483282,-1.05492 -2.050521,-1.85281 -0.509323,-0.71642 -1.164167,-1.412 -1.455208,-1.54573 -0.291042,-0.13372 -1.362604,-0.19917 -2.38125,-0.14544 -1.543066,0.0814 -1.764213,0.0438 -1.325436,-0.22536 0.289656,-0.17769 1.294866,-0.31584 2.233799,-0.30701 1.603959,0.0151 1.756048,0.0711 2.516061,0.92713 0.4449,0.50108 0.955323,1.14087 1.134272,1.42175 0.271071,0.42548 0.298268,0.26787 0.162983,-0.94451 -0.196402,-1.76011 -0.439955,-2.29974 -1.453198,-3.21982 -0.8172,-0.74206 -2.475188,-1.17499 -3.389047,-0.88494 -0.576131,0.18285 -2.216587,2.37332 -2.216587,2.95975 0,0.2217 -0.32529,0.35126 -0.881945,0.35126 -1.052254,0 -1.132163,0.45251 -0.327059,1.85208 0.482814,0.83932 0.558908,0.49539 0.123146,-0.55658 -0.149779,-0.36158 0.148857,-0.45184 2.020502,-0.61067 3.905019,-0.33139 4.107273,-0.25769 5.2955,1.92953 0.303175,0.55807 0.719594,0.88784 1.256771,0.99528 0.441849,0.0884 0.803363,0.26485 0.803363,0.39218 0,0.12733 0.178593,0.23151 0.396875,0.23151 0.55844,0 0.497264,0.52162 -0.06615,0.564 -0.254662,0.0192 -0.0463,0.12254 0.463021,0.22975 1.33315,0.28062 1.5344,0.26696 0.859895,-0.0583 z m 32.874482,0.0583 c 0.0899,-0.14552 -0.0221,-0.26458 -0.24897,-0.26458 -0.22687,0 -0.41249,0.11906 -0.41249,0.26458 0,0.14552 0.11203,0.26459 0.24897,0.26459 0.13693,0 0.32255,-0.11907 0.41249,-0.26459 z m 6.680735,-0.6993 c 0.9095,-0.25255 1.6441,-0.58547 1.63243,-0.73983 -0.0117,-0.15436 -0.22003,-0.8719 -0.46302,-1.59453 -0.39067,-1.1618 -0.54899,-1.33652 -1.36785,-1.50961 -0.73192,-0.15471 -1.21723,-0.0505 -2.315105,0.49724 -0.76399,0.38114 -1.38907,0.8521 -1.38907,1.04659 0,0.19449 -0.10632,0.35361 -0.23627,0.35361 -0.12996,0 -0.3099,0.19185 -0.39988,0.42633 -0.11706,0.30507 -0.0499,0.38269 0.23628,0.27289 0.27762,-0.10653 0.39987,0.0144 0.39987,0.39573 0,0.39688 0.11852,0.50368 0.42741,0.38515 0.34531,-0.1325 0.40608,-0.0187 0.31637,0.59249 -0.12491,0.8511 -0.39977,0.86207 3.158835,-0.12606 z m -42.796362,0.0378 c 0,-0.21828 -0.04679,-0.39688 -0.103984,-0.39688 -0.05719,0 -0.172518,0.1786 -0.25628,0.39688 -0.08376,0.21828 -0.03697,0.39687 0.103984,0.39687 0.140954,0 0.25628,-0.17859 0.25628,-0.39687 z m 22.487855,-0.82791 c 0.308285,-0.10217 0.250121,-0.24546 -0.264583,-0.65179 -0.519769,-0.41034 -0.884253,-0.48355 -1.718064,-0.3451 -0.582083,0.0966 -1.35599,0.18959 -1.719792,0.20652 -0.850839,0.0396 -0.909169,0.14943 -0.52597,0.99047 l 0.316714,0.69511 1.758273,-0.38212 c 0.967052,-0.21016 1.936091,-0.44105 2.153422,-0.51309 z m 13.760062,0.3998 c 0,-0.14552 -0.11906,-0.191 -0.26458,-0.10106 -0.14552,0.0899 -0.26459,0.28259 -0.26459,0.42811 0,0.14552 0.11907,0.191 0.26459,0.10106 0.14552,-0.0899 0.26458,-0.28259 0.26458,-0.42811 z m 0.26458,-1.44293 c 0,-0.1836 0.13722,-0.37956 0.30492,-0.43546 0.16771,-0.0559 0.32217,-0.33581 0.34325,-0.62201 0.0211,-0.28621 0.12903,-0.66711 0.23987,-0.84646 0.11123,-0.17997 0.076,-0.32607 -0.0787,-0.32607 -0.15411,0 -0.2802,0.11906 -0.2802,0.26458 0,0.14552 -0.17859,0.26458 -0.39688,0.26458 -0.55062,0 -0.49928,0.46603 0.0661,0.60042 0.37064,0.0881 0.32298,0.16789 -0.23888,0.39995 -0.38605,0.15945 -0.79586,0.44608 -0.91069,0.63696 -0.16034,0.26653 -0.10491,0.2628 0.23888,-0.0161 0.24622,-0.19972 0.44767,-0.24407 0.44767,-0.0985 0,0.14552 -0.17859,0.4128 -0.39688,0.59396 -0.21828,0.18116 -0.39687,0.45231 -0.39687,0.60257 0,0.15026 0.23812,0.0577 0.52917,-0.2057 0.29104,-0.26339 0.52916,-0.6291 0.52916,-0.8127 z m -41.936456,0.68041 c 0.08994,-0.14552 -0.02912,-0.26458 -0.264583,-0.26458 -0.235458,0 -0.35452,0.11906 -0.264583,0.26458 0.08994,0.14552 0.208999,0.26459 0.264583,0.26459 0.05558,0 0.174646,-0.11907 0.264583,-0.26459 z m 2.513542,-0.52916 c 0,-0.14552 -0.119063,-0.26459 -0.264583,-0.26459 -0.145521,0 -0.264584,0.11907 -0.264584,0.26459 0,0.14552 0.119063,0.26458 0.264584,0.26458 0.14552,0 0.264583,-0.11906 0.264583,-0.26458 z m 4.143979,-1.12448 c -0.0734,-0.1819 -0.133453,-0.0331 -0.133453,0.33073 0,0.3638 0.06005,0.51263 0.133453,0.33073 0.0734,-0.18191 0.0734,-0.47956 0,-0.66146 z m -5.867237,0.0718 c 0.06903,-0.1117 -0.407239,-0.18842 -1.058376,-0.17049 -0.651137,0.0179 -1.184613,0.1548 -1.185501,0.30416 -0.0018,0.30784 2.046422,0.18582 2.243877,-0.13367 z m 6.641318,-1.76017 c -0.07642,-0.19916 -0.02363,-0.36211 0.117327,-0.36211 0.360353,0 0.320409,-0.98747 -0.04918,-1.21589 -0.179677,-0.11104 -0.234003,-0.0732 -0.131927,0.092 0.105197,0.17021 -0.0089,0.23339 -0.289848,0.16042 -0.380171,-0.0988 -0.468053,0.0656 -0.489374,0.91544 -0.02243,0.8942 0.04292,1.0178 0.477985,0.90403 0.291723,-0.0763 0.445453,-0.28429 0.365021,-0.4939 z m 40.987149,-0.0975 c 0.0899,-0.14553 0.0374,-0.26459 -0.11667,-0.26459 -0.15411,0 -0.2802,0.11906 -0.2802,0.26459 0,0.14552 0.0525,0.26458 0.11668,0.26458 0.0642,0 0.19026,-0.11906 0.28019,-0.26458 z m -4.974085,-0.36739 c 0.11637,-0.20206 0.44971,-0.42637 0.74075,-0.49847 0.29104,-0.0721 -0.007,-0.14308 -0.66146,-0.15773 -0.82961,-0.0186 -1.07253,0.048 -0.80116,0.21965 0.34289,0.21685 0.34289,0.26132 0,0.37186 -0.2142,0.0691 -0.56806,0.18513 -0.78634,0.25793 -0.21828,0.0728 -0.0159,0.14177 0.44988,0.15326 0.46571,0.0115 0.94196,-0.14444 1.05833,-0.3465 z m 6.349095,-1.51481 c -0.17321,-0.27735 -0.35523,-0.38338 -0.40449,-0.23561 -0.0493,0.14777 -0.31358,1.2e-4 -0.58738,-0.32812 -0.2738,-0.32823 -0.50178,-0.47177 -0.50662,-0.31897 -0.005,0.1528 0.12142,0.40804 0.28059,0.56721 0.15917,0.15917 0.24247,0.5104 0.18513,0.78052 -0.0839,0.39526 -0.19586,0.31847 -0.57349,-0.39336 -0.55085,-1.03835 -0.76253,-0.99514 -0.47069,0.0961 0.24773,0.92628 1.26267,1.30205 1.94378,0.71966 0.36475,-0.31187 0.38952,-0.47695 0.13317,-0.88742 z m -4.310765,0.25369 c -0.17094,-0.27658 -1.88211,-0.29756 -2.05038,-0.0251 -0.0674,0.10914 0.39744,0.20975 1.03299,0.22358 0.63556,0.0138 1.09338,-0.0755 1.01739,-0.19844 z m -39.433607,-0.35435 c -0.08344,-0.21745 -0.27101,-0.32163 -0.416819,-0.23151 -0.163011,0.10074 -0.12686,0.25144 0.09387,0.3913 0.481756,0.30526 0.49827,0.29709 0.322949,-0.15979 z m 1.34181,0.15849 c 0.08051,-0.13027 -0.03907,-0.30802 -0.265738,-0.395 -0.226669,-0.087 -0.338021,-0.27805 -0.247449,-0.4246 0.09057,-0.14655 0.0088,-0.26828 -0.181668,-0.27051 -0.252938,-0.003 -0.24021,-0.0712 0.0472,-0.25287 0.311763,-0.19711 0.274337,-0.23984 -0.180107,-0.20561 -0.315506,0.0238 -0.525939,0.12041 -0.46763,0.21476 0.05831,0.0943 0.225708,0.48635 0.371997,0.87111 0.268354,0.70583 0.653785,0.89897 0.9234,0.46272 z m 39.043182,0.12019 c 0,-0.0642 -0.11906,-0.19027 -0.264585,-0.2802 -0.14552,-0.0899 -0.26459,-0.0374 -0.26459,0.11667 0,0.15411 0.11907,0.2802 0.26459,0.2802 0.145525,0 0.264585,-0.0525 0.264585,-0.11667 z m 0.38271,-0.85244 c -0.26612,-0.19459 -0.669455,-0.35018 -0.896305,-0.34576 -0.30834,0.006 -0.27887,0.0836 0.11671,0.30727 0.291055,0.16457 0.639335,0.48531 0.773975,0.71276 0.19921,0.33653 0.26759,0.34519 0.36714,0.0465 0.0673,-0.20185 -0.0954,-0.52622 -0.36152,-0.72081 z m -1.176465,0.33596 c 0,-0.0572 -0.18478,-0.17489 -0.41062,-0.26155 -0.23546,-0.0904 -0.34166,-0.046 -0.24897,0.10398 0.15538,0.25141 0.65959,0.37186 0.65959,0.15757 z M 58.318412,150.7752 c -0.672535,-0.90965 -2.038198,-1.85599 -2.67838,-1.85599 -0.22325,0 -0.525603,0.34335 -0.671897,0.76301 l -0.265989,0.76302 1.446453,0.11995 c 1.010583,0.0838 1.616676,0.29017 2.011344,0.68484 0.796099,0.7961 0.890027,0.51465 0.158469,-0.47483 z m 0.82034,-0.027 c -0.316986,-0.59229 -1.84973,-2.073 -2.159128,-2.08582 -0.157077,-0.006 2.154372,2.53003 2.37923,2.61093 0.0415,0.0149 -0.05755,-0.22137 -0.220102,-0.52511 z m -5.067644,-0.29441 c 0.448934,-0.44894 0.39718,-0.86663 -0.230328,-1.85892 l -0.547826,-0.86629 0.146786,1.19062 0.146787,1.19063 -0.545363,-1.14822 c -0.29995,-0.63151 -0.605378,-1.0882 -0.67873,-1.01484 -0.07335,0.0734 -0.0047,0.37386 0.152654,0.66779 0.519405,0.97052 0.278569,1.24481 -0.38364,0.43693 -0.357845,-0.43656 -0.65122,-0.70479 -0.651943,-0.59607 -0.0017,0.2583 1.858037,2.31587 2.093223,2.31587 0.09948,0 0.323755,-0.14288 0.49838,-0.3175 z m 6.601354,-0.12947 c -0.254662,-0.0665 -0.67138,-0.0665 -0.926042,0 -0.254661,0.0666 -0.0463,0.121 0.463021,0.121 0.509323,0 0.717682,-0.0545 0.463021,-0.121 z m -0.788238,-1.45473 c -0.0576,-0.1728 -0.249094,-0.34247 -0.425538,-0.37703 -0.176444,-0.0346 -0.198027,-0.002 -0.04796,0.0722 0.150065,0.0743 0.205547,0.24394 0.123291,0.37703 -0.08225,0.1331 -0.01354,0.24199 0.152692,0.24199 0.166236,0 0.255118,-0.14139 0.197515,-0.31419 z m -5.090672,-0.67799 c -0.09987,-0.40018 -0.350906,-0.91557 -0.55785,-1.14531 -0.206944,-0.22974 -0.383808,-0.70599 -0.393032,-1.05834 l -0.01677,-0.64062 -0.254725,0.63705 c -0.202994,0.50767 -0.143401,0.75554 0.293433,1.22053 0.301487,0.32092 0.528623,0.68909 0.504747,0.81816 -0.09616,0.51985 0.03506,0.89613 0.31252,0.89613 0.187559,0 0.227813,-0.26226 0.111677,-0.7276 z m 1.579431,0.19844 c -0.08994,-0.14552 -0.305323,-0.26276 -0.478636,-0.26054 -0.18934,0.002 -0.156706,0.10643 0.08176,0.26054 0.508297,0.32848 0.599891,0.32848 0.396876,0 z m 1.569167,-1.03257 c -0.06961,-0.0696 -0.332083,0.088 -0.58328,0.35028 -0.436373,0.4556 -0.430735,0.46123 0.126559,0.12656 0.320804,-0.19266 0.526328,-0.40724 0.456721,-0.47684 z m -0.898986,-0.15806 c 0.359042,-0.48948 0.353427,-0.50193 -0.07487,-0.16604 -0.254661,0.19972 -0.463021,0.48746 -0.463021,0.63941 0,0.15196 0.03369,0.22668 0.07487,0.16604 0.04118,-0.0606 0.249537,-0.34836 0.463021,-0.63941 z m -0.951899,0.16002 c 0.08051,-0.13027 -0.03152,-0.30513 -0.248969,-0.38857 -0.240151,-0.0922 -0.395355,8.3e-4 -0.395355,0.23686 0,0.42793 0.413444,0.52528 0.644324,0.15171 z m -0.846206,-0.76809 c 0.08488,-0.32456 -0.03162,-0.48753 -0.366546,-0.51276 -0.406459,-0.0306 -0.443731,0.0513 -0.216543,0.47578 0.339321,0.63403 0.425529,0.63949 0.583089,0.037 z m -2.443951,-0.0534 c 0,-0.14552 -0.0525,-0.26458 -0.116677,-0.26458 -0.06417,0 -0.190261,0.11906 -0.280198,0.26458 -0.08994,0.14552 -0.03743,0.26459 0.116676,0.26459 0.154109,0 0.280199,-0.11907 0.280199,-0.26459 z m 21.167656,59.865 c -5.29e-4,-0.32576 0.20737,-0.8418 0.462031,-1.14676 0.254662,-0.30496 0.672134,-0.80166 0.927719,-1.10377 0.255585,-0.30212 0.54379,-0.47022 0.640453,-0.37356 0.09667,0.0967 -0.07018,0.44318 -0.370774,0.77003 -0.300587,0.32684 -0.796708,1.01099 -1.102484,1.52031 -0.476753,0.79411 -0.556098,0.84166 -0.556945,0.33375 z m 33.863056,-34.47295 c -0.2629,-0.7966 -0.27581,-1.14237 -0.051,-1.36715 0.34402,-0.34402 0.44351,-0.14106 0.70648,1.44125 0.21898,1.31762 -0.21223,1.26888 -0.65546,-0.0741 z"
       id="path1541" />
  </g>
</svg>
