<?xml version="1.0" standalone="no"?><!-- Generator: Gravit.io --><svg xmlns="http://www.w3.org/2000/svg" xmlns:xlink="http://www.w3.org/1999/xlink" style="isolation:isolate" viewBox="0 0 200 200" width="200" height="200"><defs><clipPath id="_clipPath_63pYDnmpYuzJfCPCbKFSsJxZuCMXQhey"><rect width="200" height="200"/></clipPath></defs><g clip-path="url(#_clipPath_63pYDnmpYuzJfCPCbKFSsJxZuCMXQhey)"><path d="M 172.909 4 L 172.909 4 C 177.274 4 180.818 7.544 180.818 11.909 L 180.818 69.091 C 180.818 73.456 177.274 77 172.909 77 L 172.909 77 C 168.544 77 165 73.456 165 69.091 L 165 11.909 C 165 7.544 168.544 4 172.909 4 Z" style="stroke:none;fill:#C3C2C2;stroke-miterlimit:10;"/><path d="M 27.091 4 L 27.091 4 C 31.456 4 35 7.544 35 11.909 L 35 69.091 C 35 73.456 31.456 77 27.091 77 L 27.091 77 C 22.726 77 19.182 73.456 19.182 69.091 L 19.182 11.909 C 19.182 7.544 22.726 4 27.091 4 Z" style="stroke:none;fill:#C3C2C2;stroke-miterlimit:10;"/><path d=" M 169.217 107.502 L 159.16 124.922 L 149.103 142.341 C 122.002 189.281 77.998 189.281 50.897 142.341 L 40.84 124.922 L 30.783 107.502 C 3.683 60.563 25.685 22.454 79.886 22.454 L 100 22.454 L 120.114 22.454 C 174.315 22.454 196.317 60.563 169.217 107.502 Z " fill="rgb(234,234,233)"/><path d=" M 148.52 113.724 L 142.33 123.185 L 136.14 132.646 C 116.194 163.131 83.806 163.131 63.86 132.646 L 57.67 123.185 L 51.48 113.724 C 31.534 83.24 44.917 58.491 81.347 58.491 L 100 58.491 L 118.653 58.491 C 155.083 58.491 168.466 83.24 148.52 113.724 Z " fill="rgb(73,73,73)"/><path d="M 66.909 88.491 L 76.091 88.491 C 79.076 88.491 81.5 90.914 81.5 93.9 L 81.5 94.591 C 81.5 97.576 79.076 100 76.091 100 L 66.909 100 C 63.924 100 61.5 97.576 61.5 94.591 L 61.5 93.9 C 61.5 90.914 63.924 88.491 66.909 88.491 Z" style="stroke:none;fill:#63C5E0;stroke-miterlimit:10;"/><path d="M 123.909 88.491 L 133.091 88.491 C 136.076 88.491 138.5 90.914 138.5 93.9 L 138.5 94.591 C 138.5 97.576 136.076 100 133.091 100 L 123.909 100 C 120.924 100 118.5 97.576 118.5 94.591 L 118.5 93.9 C 118.5 90.914 120.924 88.491 123.909 88.491 Z" style="stroke:none;fill:#63C5E0;stroke-miterlimit:10;"/></g></svg>