<?xml version="1.0" standalone="no"?><!-- Generator: Gravit.io --><svg xmlns="http://www.w3.org/2000/svg" xmlns:xlink="http://www.w3.org/1999/xlink" style="isolation:isolate" viewBox="0 0 200 200" width="200" height="200"><defs><clipPath id="_clipPath_zWmYHhetXCldbld4wsPZJT83fMKvExzU"><rect width="200" height="200"/></clipPath></defs><g clip-path="url(#_clipPath_zWmYHhetXCldbld4wsPZJT83fMKvExzU)"><rect x="99.547" y="24.907" width="1.573" height="63.988" transform="matrix(1,0,0,1,0,0)" fill="rgb(83,178,182)"/><path d=" M 86.514 88.895 C 86.514 81.267 92.706 75.075 100.333 75.075 C 107.961 75.075 114.153 81.267 114.153 88.895 C 114.153 96.522 107.961 102.715 100.333 102.715 C 92.706 102.715 86.514 96.522 86.514 88.895 Z " fill="rgb(131,209,222)"/><path d="M 37.094 90.667 L 163.572 90.667 C 174.111 90.667 182.667 99.223 182.667 109.761 L 182.667 180.683 C 182.667 191.222 174.111 199.778 163.572 199.778 L 37.094 199.778 C 26.556 199.778 18 191.222 18 180.683 L 18 109.761 C 18 99.223 26.556 90.667 37.094 90.667 Z" style="stroke:none;fill:#83D1DE;stroke-miterlimit:10;"/><path d="M 83.666 87.123 L 117.001 87.123 C 118.069 87.123 118.935 87.917 118.935 88.895 L 118.935 88.895 C 118.935 89.873 118.069 90.667 117.001 90.667 L 83.666 90.667 C 82.598 90.667 81.731 89.873 81.731 88.895 L 81.731 88.895 C 81.731 87.917 82.598 87.123 83.666 87.123 Z" style="stroke:none;fill:#53B2B6;stroke-miterlimit:10;"/><path d=" M 96.317 22.611 C 96.317 20.394 98.117 18.595 100.333 18.595 C 102.55 18.595 104.35 20.394 104.35 22.611 C 104.35 24.828 102.55 26.627 100.333 26.627 C 98.117 26.627 96.317 24.828 96.317 22.611 Z " fill="rgb(131,209,222)"/><g id="Group"><path d=" M 86.398 68.25 C 86.398 66.576 91.919 65.194 99.031 65.006" fill="none" vector-effect="non-scaling-stroke" stroke-width="1" stroke="rgb(131,209,222)" stroke-linejoin="miter" stroke-linecap="square" stroke-miterlimit="3"/><path d=" M 101.6 64.993 C 109.106 65.089 115.055 66.512 115.055 68.25 C 115.055 70.055 108.635 71.521 100.726 71.521 C 92.818 71.521 86.398 70.055 86.398 68.25" fill="none" vector-effect="non-scaling-stroke" stroke-width="1" stroke="rgb(131,209,222)" stroke-linejoin="miter" stroke-linecap="square" stroke-miterlimit="3"/></g><g id="Group"><path d=" M 89.395 55.159 C 89.395 53.835 93.762 52.743 99.385 52.594" fill="none" vector-effect="non-scaling-stroke" stroke-width="0.791" stroke="rgb(131,209,222)" stroke-linejoin="miter" stroke-linecap="square" stroke-miterlimit="3"/><path d=" M 101.417 52.584 C 107.353 52.66 112.057 53.785 112.057 55.159 C 112.057 56.587 106.98 57.746 100.726 57.746 C 94.473 57.746 89.395 56.587 89.395 55.159" fill="none" vector-effect="non-scaling-stroke" stroke-width="0.791" stroke="rgb(131,209,222)" stroke-linejoin="miter" stroke-linecap="square" stroke-miterlimit="3"/></g><path d="M 56.739 115.077 L 144.713 115.077 C 154.903 115.077 163.175 123.349 163.175 133.538 L 163.175 133.538 C 163.175 143.728 154.903 152 144.713 152 L 56.739 152 C 46.55 152 38.278 143.728 38.278 133.538 L 38.278 133.538 C 38.278 123.349 46.55 115.077 56.739 115.077 Z" style="stroke:none;fill:#231F20;stroke-miterlimit:10;"/><path d=" M 63.735 135.487 C 63.735 132.261 66.355 129.641 69.581 129.641 C 72.808 129.641 75.428 132.261 75.428 135.487 C 75.428 138.714 72.808 141.333 69.581 141.333 C 66.355 141.333 63.735 138.714 63.735 135.487 Z " fill="rgb(232,176,45)"/><path d=" M 126.812 135.487 C 126.812 132.261 129.432 129.641 132.658 129.641 C 135.885 129.641 138.504 132.261 138.504 135.487 C 138.504 138.714 135.885 141.333 132.658 141.333 C 129.432 141.333 126.812 138.714 126.812 135.487 Z " fill="rgb(232,176,45)"/><path d=" M 135.542 164.646 C 135.285 181.643 121.407 195.36 104.35 195.36 C 87.292 195.36 73.414 181.643 73.157 164.646 L 135.542 164.646 Z " fill="rgb(35,31,32)"/><path d=" M 117.002 192.665 C 113.14 194.403 108.856 195.36 104.35 195.36 C 94.304 195.36 85.361 190.602 79.653 183.22 C 83.637 181.159 88.162 180.003 92.955 180.003 C 102.931 180.003 111.746 185.014 117.002 192.665 Z " fill="rgb(224,20,93)"/></g></svg>