<?xml version="1.0" encoding="UTF-8" standalone="no"?>
<svg
   xmlns:dc="http://purl.org/dc/elements/1.1/"
   xmlns:cc="http://creativecommons.org/ns#"
   xmlns:rdf="http://www.w3.org/1999/02/22-rdf-syntax-ns#"
   xmlns:svg="http://www.w3.org/2000/svg"
   xmlns="http://www.w3.org/2000/svg"
   id="svg7330"
   version="1.1"
   viewBox="0 0 379.52951 398.54642"
   height="398.54642mm"
   width="379.52951mm">
  <defs
     id="defs7324" />
  <metadata
     id="metadata7327">
    <rdf:RDF>
      <cc:Work
         rdf:about="">
        <dc:format>image/svg+xml</dc:format>
        <dc:type
           rdf:resource="http://purl.org/dc/dcmitype/StillImage" />
        <dc:title></dc:title>
      </cc:Work>
    </rdf:RDF>
  </metadata>
  <g
     transform="translate(216.50896,59.036792)"
     id="layer1">
    <path
       id="path7886"
       d="m 95.220235,338.9906 c -0.650102,-0.45533 -0.770519,-1.00778 -0.98045,-4.49791 -0.131629,-2.18835 -0.300415,-6.20131 -0.375084,-8.9177 -0.07467,-2.71638 -0.208785,-5.41513 -0.298044,-5.99722 -0.357131,-2.32897 -0.715744,-8.2164 -1.106647,-18.16805 -0.148618,-3.78354 -0.307632,-7.27604 -0.353363,-7.76111 -0.04573,-0.48507 -0.194575,-2.3107 -0.330757,-4.05695 -0.978609,-12.54827 -1.300367,-16.33736 -1.452909,-17.10972 -0.0958,-0.48507 -0.252416,-2.04605 -0.348032,-3.46885 -0.6933,-10.31638 -2.959972,-27.65772 -5.26438,-40.27559 -0.710829,-3.89219 -0.741845,-4.03431 -1.42423,-6.52639 -0.318774,-1.16416 -0.879938,-4.13723 -1.247031,-6.6068 -0.758878,-5.10525 -1.18522,-6.89334 -1.865408,-7.82355 -0.52457,-0.7174 -0.337841,-1.04366 -1.999883,3.49424 -3.251383,8.8773 -3.731616,10.43324 -4.899734,15.875 -0.80531,3.75159 -1.676477,7.27088 -3.231098,13.05278 -0.626036,2.32833 -1.265569,4.78896 -1.421187,5.46805 -0.155617,0.6791 -0.520901,2.2666 -0.811738,3.52778 -4.263286,20.18249 -8.997267,40.91891 -12.04801,61.03055 -1.119473,7.45303 -1.893065,12.08804 -2.47294,14.81667 -0.268019,1.26118 -0.576725,2.92805 -0.686015,3.70416 -0.109291,0.77612 -0.469198,2.66016 -0.799793,4.18681 -0.835442,3.85787 -0.812324,3.84704 -7.748429,3.63011 -3.067399,-0.0959 -5.921279,-0.2819 -6.341956,-0.41327 -0.948669,-0.2963 -1.660779,-1.93062 -1.454277,-3.3376 0.118942,-0.8104 -7.06e-4,-1.10857 -0.508917,-1.26993 -1.304767,-0.41412 -4.265764,0.30141 -7.446218,1.79938 -6.683026,3.14769 -9.836372,3.63142 -16.107667,2.4711 -4.247868,-0.78595 -13.5160525,-5.36353 -16.9262917,-8.35991 -0.9080147,-0.79781 -1.0205437,-1.07171 -0.7416482,-1.80527 0.459994,-1.20989 1.9336243,-2.72225 2.6525184,-2.72225 0.3312548,0 1.2823542,0.39853 2.11355507,0.88565 1.71226683,1.00348 6.27196183,2.68386 7.63006453,2.81192 0.4959985,0.0467 1.2103734,0.24522 1.5874999,0.44097 0.37713,0.19576 0.9238156,0.31849 1.2148573,0.27274 0.2910417,-0.0458 1.6153237,-0.19809 2.9428477,-0.33853 1.327527,-0.14041 2.994402,-0.49519 3.704166,-0.78842 3.080512,-1.27265 6.318571,-2.97632 7.434647,-3.91164 l 1.205272,-1.01007 0.02946,-3.32645 c 0.01619,-1.82954 -0.08921,-5.46957 -0.234248,-8.08895 -0.145037,-2.61937 -0.35917,-8.00893 -0.475858,-11.9768 -0.116685,-3.9679 -0.287341,-7.7779 -0.37924,-8.46667 -0.302207,-2.26515 -0.377705,-36.10175 -0.0882,-39.52874 0.155716,-1.84327 0.457913,-6.60577 0.671548,-10.58334 1.054472,-15.06061 2.653684,-27.96746 4.588796,-42.97303 0.382319,-2.97121 0.779437,-5.53862 0.882484,-5.70536 0.235102,-0.3804 0.749085,-3.10596 1.065357,-5.64938 0.132697,-1.06715 0.315771,-2.06136 0.40683,-2.20936 0.229038,-0.37224 -0.878275,-2.4746 -3.109916,-5.90453 -0.69433,-1.06715 -1.763373,-2.93436 -2.375654,-4.14934 -1.21091,-2.40288 -3.783249,-9.37113 -4.035446,-10.9317 -0.152132,-0.94136 -1.195952,-5.13568 -2.172956,-8.73146 -1.705684,-6.27763 -2.353303,-13.51239 -2.338127,-26.11996 0.01104,-9.1825 0.159978,-12.00503 0.753079,-14.27309 0.228321,-0.87313 0.529265,-2.69875 0.66876,-4.05695 0.139496,-1.35819 0.500172,-3.18382 0.801504,-4.05694 0.554345,-1.60624 1.059875,-3.31441 2.401302,-8.113889 2.125807,-7.60591 7.122139,-17.726818 11.722922,-23.746745 4.271592,-5.589195 5.994047,-7.800861 7.228384,-9.281392 7.773811,-9.324322 21.639297,-23.063527 23.275498,-23.063527 0.77537,0 1.116676,1.184455 0.81552,2.830142 -0.548499,2.997288 -0.789644,6.176987 -0.735143,9.693469 0.06026,3.888059 0.62376,10.77137 0.951777,11.626165 0.357766,0.932321 0.797454,0.601144 1.03324,-0.778249 0.834298,-4.880793 4.66962,-17.699961 6.558474,-21.921017 0.635673,-1.420548 1.009201,-2.85507 1.010443,-3.880556 0.0028,-2.289397 0.610218,-4.211432 1.664064,-5.265278 l 0.90243,-0.902431 0.656047,0.810183 c 0.884375,1.092154 0.845682,3.387255 -0.08642,5.126355 -0.929485,1.734213 -1.806794,5.115785 -2.27875,8.783383 -0.07126,0.55379 -0.207483,1.268165 -0.302708,1.587499 -0.09523,0.319338 -0.267,1.453738 -0.381713,2.52089 -0.114713,1.067153 -0.347712,2.972153 -0.517772,4.233333 -0.170063,1.261181 -0.408421,3.880556 -0.529689,5.820833 l -0.220482,3.527778 0.884079,-1.045051 c 0.486244,-0.574781 1.168738,-1.599734 1.516651,-2.277678 0.347913,-0.677944 1.30895,-2.192045 2.135636,-3.364671 0.826685,-1.172622 2.395047,-3.481419 3.485243,-5.130655 2.576699,-3.897989 4.249649,-5.936456 7.527561,-9.172222 6.59752,-6.51269 8.170605,-7.719398 9.684487,-7.428924 0.454928,0.08729 3.73871,0.739528 4.67616,0.9288 0.42402,0.08561 1.50874,0.471911 2.41049,0.858446 0.90175,0.386535 1.78165,0.70279 1.95534,0.70279 10.34726,3.265075 18.54062,10.210091 27.78605,17.098609 11.88854,10.319862 18.34401,23.148568 22.86498,37.229166 6.21895,11.324064 3.35389,20.440074 5.22495,32.829954 0.0825,0.49696 -0.0123,3.19571 -0.21053,5.99722 0.28806,8.34362 -1.85072,14.0818 -3.84768,21.93106 -0.90823,3.57827 -5.56712,12.49256 -8.76173,16.76462 -1.28245,1.71497 -2.78793,3.78296 -3.3455,4.59553 -0.55756,0.81257 -1.81966,2.15491 -2.80465,2.98298 -0.98499,0.82807 -2.54148,2.14058 -3.45885,2.91669 -3.86817,3.27248 -5.10399,4.2827 -6.30773,5.15633 l -1.27177,0.92299 0.12683,4.89784 c 0.22397,8.64762 0.17254,36.5019 -0.0758,41.05756 -0.5045,9.25518 -0.59898,11.63679 -0.68576,17.28611 -0.0492,3.20145 -0.29383,7.01145 -0.54367,8.46666 -0.24983,1.45521 -0.43487,3.28084 -0.41119,4.05695 0.0236,0.77611 -0.11607,3.79236 -0.31056,6.70277 -0.19448,2.91042 -0.45589,8.30792 -0.58088,11.99445 -0.28649,8.44857 -0.32145,9.18908 -0.80758,17.10972 -0.63235,10.30397 -0.75364,11.75057 -1.07936,12.87639 -0.16841,0.58208 -0.40887,2.7252 -0.53435,4.7625 -0.12545,2.03729 -0.28801,4.10104 -0.36117,4.58611 -0.0732,0.48507 -0.29955,1.93872 -0.50303,3.23035 -0.43455,2.75809 -0.26395,3.3952 0.99487,3.71531 1.12758,0.28674 5.81392,0.30879 7.28123,0.0342 1.40867,-0.26356 5.77282,-2.00677 6.87916,-2.74782 0.48507,-0.32494 1.86302,-1.1231 3.06215,-1.77377 1.90468,-1.03349 2.29475,-1.13079 3.08681,-0.7699 0.74079,0.33754 0.90635,0.65642 0.90529,1.74357 0,0.73177 -0.3007,1.82139 -0.66661,2.42143 -0.71744,1.17659 -3.14621,3.27371 -4.70718,4.06446 -0.53097,0.26896 -2.59472,1.46106 -4.58611,2.64915 -1.9914,1.18808 -5.12886,2.745 -6.97212,3.45983 -1.84327,0.71484 -3.9236,1.54242 -4.62294,1.83903 -2.01892,0.85634 -6.50636,0.76461 -8.32759,-0.17021 -0.81689,-0.41931 -1.80866,-0.76239 -2.20392,-0.76239 -0.39527,0 -1.71128,-0.46076 -2.92447,-1.0239 -2.70004,-1.25328 -6.15338,-2.26032 -6.6656,-1.94377 -0.22969,0.14195 -0.29226,0.77473 -0.15899,1.6081 0.14767,0.92354 0.0415,1.71863 -0.32384,2.42513 l -0.54355,1.05111 h -5.3805 c -4.165354,0 -5.547879,-0.11723 -6.121627,-0.51912 z m 30.570245,-35.46422 c 0,-0.19402 -0.15875,-0.35277 -0.35278,-0.35277 -0.19403,0 -0.35278,0.15875 -0.35278,0.35277 0,0.19403 0.15875,0.35278 0.35278,0.35278 0.19403,0 0.35278,-0.15875 0.35278,-0.35278 z M 113.54009,98.700863 c 0.11793,-0.117933 0.0826,-0.475121 -0.0785,-0.79375 -0.16109,-0.318632 -0.7766,-2.166828 -1.3678,-4.107105 -3.76787,-12.365979 -4.20987,-13.581944 -4.93708,-13.581944 -0.24863,0 -1.3093,2.121101 -3.70459,7.408333 -0.48345,1.067153 -1.31635,2.892778 -1.85089,4.056944 -0.53453,1.164167 -0.98778,2.196042 -1.00721,2.293056 -0.0194,0.09701 -0.25484,0.70116 -0.52315,1.342541 -0.285983,0.683669 -0.357272,1.293911 -0.172303,1.474932 0.173533,0.169831 1.903013,0.410517 3.843293,0.534861 1.94028,0.124343 3.84528,0.357074 4.23333,0.517175 1.49944,0.618632 5.22833,1.191518 5.56489,0.854957 z M -141.95001,336.1009 c -0.39786,-0.50582 -0.72339,-1.34275 -0.72339,-1.85988 0,-1.89544 -1.57863,-2.29486 -4.35928,-1.10293 -0.87755,0.37617 -3.1529,1.20961 -5.05633,1.85208 -3.23339,1.09139 -3.76211,1.16696 -8.04689,1.14992 -4.74811,-0.019 -5.70118,-0.21086 -12.71029,-2.55997 -2.64485,-0.88642 -6.74901,-2.76327 -7.02735,-3.21363 -0.11566,-0.18715 -0.94848,-0.70679 -1.85071,-1.15478 -0.90223,-0.44796 -2.28769,-1.40681 -3.07881,-2.13074 -3.8187,-3.49437 -4.05365,-4.02601 -2.51357,-5.6878 0.9756,-1.05269 1.99848,-1.19447 2.80425,-0.38869 0.29961,0.29961 1.22377,0.8601 2.05367,1.24551 0.82991,0.38541 1.74705,0.84593 2.03809,1.02331 0.29104,0.17741 1.64041,0.669 2.99861,1.09244 1.93385,0.6029 3.42587,0.77925 6.87916,0.81316 l 4.40973,0.0433 -0.0494,-1.23473 c -0.0271,-0.67909 -0.70483,-4.96534 -1.50598,-9.52499 -2.05646,-11.70415 -3.05312,-19.71256 -3.38058,-27.16389 -0.10659,-2.42535 -0.28094,-4.88597 -0.38744,-5.46806 -0.84077,-4.59507 -0.75926,-17.79603 0.1917,-31.04444 0.42065,-5.8604 1.12291,-10.89182 2.11728,-15.16944 1.28642,-7.60783 3.47403,-14.36222 5.1389,-21.67423 0.50419,-2.23192 3.42692,-13.41104 4.2022,-16.07299 3.46139,-11.88483 3.91449,-14.79558 3.84405,-24.69445 -0.0362,-5.08532 -0.22163,-7.63919 -0.76846,-10.58333 -0.39642,-2.1343 -0.78961,-4.3568 -0.87376,-4.93889 -0.23159,-1.60201 -2.64284,-8.4987 -3.94687,-11.28889 -2.84229,-9.514 -9.78141,-18.01448 -11.46085,-27.88907 0,-0.2201 -0.31841,-0.68834 -0.70758,-1.04053 -0.69147,-0.62578 -0.74029,-0.60494 -2.145,0.91546 -2.02762,2.19462 -3.95252,5.10506 -5.41586,8.18874 -1.42287,2.99842 -1.47244,3.30881 -0.70365,4.40642 1.36007,1.94177 0.3104,4.18323 -2.32937,4.97413 -1.61066,0.48256 -1.94368,1.58849 -0.5813,1.93042 1.32938,0.33366 1.78709,1.57906 1.14506,3.11565 -0.29656,0.70977 -0.83846,1.38547 -1.20423,1.50156 -0.36576,0.11609 -0.94948,0.5254 -1.29716,0.90958 -0.56695,0.62647 -0.63097,1.47554 -0.62082,8.23239 0.006,4.14364 0.18063,8.30995 0.38756,9.25846 0.35701,1.63644 0.96029,5.75242 1.37482,9.37993 0.18263,1.59816 0.15283,1.66625 -0.82385,1.88287 -0.55734,0.12361 -1.83152,0.44901 -2.83153,0.72312 -1,0.2741 -2.1406,0.49837 -2.53467,0.49837 -0.39407,0 -1.16339,0.18427 -1.70959,0.40949 -0.54621,0.22522 -1.94561,0.68124 -3.10977,1.01337 -1.16417,0.33213 -4.25979,1.27574 -6.87917,2.09692 -6.55356,2.05455 -6.70454,2.06863 -8.02459,0.74858 -1.09291,-1.09291 -1.57025,-2.15894 -2.85909,-6.38502 -0.78419,-2.57135 -2.14978,-10.54518 -2.08437,-12.17084 0.0234,-0.58208 -0.0887,-2.48708 -0.24918,-4.23333 -0.16047,-1.74625 -0.29245,-3.4925 -0.29328,-3.88056 -0.004,-1.93257 0.86646,-12.17388 1.13963,-13.40555 0.17213,-0.77611 0.55815,-2.60174 0.85781,-4.05694 2.68114,-13.01991 3.43155,-15.10427 8.44602,-23.45973 0.69867,-1.16416 1.61579,-2.75166 2.03805,-3.52777 0.42226,-0.77611 1.34246,-2.06488 2.0449,-2.86393 7.48002,-10.058444 16.072,-19.88134 26.48697,-28.014125 0.86553,-0.673597 2.05185,-1.661286 2.63625,-2.194863 0.58441,-0.533576 1.19257,-0.970139 1.35147,-0.970139 0.1589,0 0.63946,-0.332997 1.06791,-0.739993 1.95739,-1.85939 9.3815,-6.296702 15.24289,-9.110514 2.52236,-1.210885 6.31739,-3.061755 8.4334,-4.11305 3.76532,-1.870714 5.23628,-2.272908 5.68101,-1.553319 0.12173,0.196966 0.80579,0.601189 1.52013,0.898267 0.71433,0.297081 1.85442,0.903344 2.53351,1.347255 0.6791,0.443907 2.5841,1.653698 4.23334,2.688424 1.64923,1.034729 3.23673,2.137805 3.52777,2.451287 5.28641,4.065144 11.11381,8.336985 15.90374,12.843146 1.47101,1.386243 3.93164,3.651821 5.46805,5.034614 1.53642,1.382797 4.26493,3.962485 6.06337,5.732639 1.79843,1.770158 3.443643,3.218466 3.656026,3.218466 0.486227,0 0.08301,-2.959136 -0.577183,-4.235803 -0.658632,-1.273655 -1.169423,-4.314715 -1.765073,-10.508565 -0.47102,-4.897935 -0.85758,-6.62384 -1.59648,-7.127853 -0.14222,-0.09701 -0.82694,-1.25004 -1.5216,-2.562278 -1.46896,-2.774922 -1.37582,-3.899059 0.33638,-4.060031 1.47971,-0.139118 2.58567,1.730544 3.04149,5.141739 0.346838,2.595605 1.415452,4.954213 3.627707,8.006958 0.765002,1.055645 6.841522,13.202016 7.566233,15.124161 0.279477,0.741257 0.273681,1.143508 -0.02159,1.499306 -0.315112,0.379684 -0.2762,0.486254 0.177539,0.486254 0.319599,0 0.719374,0.363711 0.888389,0.808249 0.357033,0.93907 1.357045,1.860875 1.674432,1.543484 0.266262,-0.266262 -0.285316,-2.880624 -1.500957,-7.114232 -0.50142,-1.74625 -1.049824,-3.838155 -1.218677,-4.648676 -0.16885,-0.810521 -0.55208,-2.060219 -0.851613,-2.777109 -0.299551,-0.716891 -0.544625,-1.580868 -0.544625,-1.919951 0,-0.739898 -1.22174,-4.693916 -1.908454,-6.176486 -0.269614,-0.582083 -1.314016,-2.771288 -2.320893,-4.8649 -1.924227,-4.001072 -1.973753,-4.913408 -0.25261,-4.653322 0.427785,0.06464 1.650915,0.22347 2.718068,0.35295 3.098214,0.37591 10.775703,2.919254 15.024773,4.977299 6.875055,3.000232 14.277411,6.614019 20.076615,8.791642 4.162357,1.560572 5.184252,1.811507 9.898496,2.43066 3.663121,0.481104 6.692861,0.434424 9.959699,-0.153444 2.024796,-0.364363 7.119779,-2.762688 8.540415,-4.020168 0.485069,-0.429362 1.771643,-1.354006 2.859048,-2.054768 1.626264,-1.048014 3.439121,-2.64621 7.81897,-6.893104 2.24131,-2.173274 5.00483,-5.376788 6.325634,-7.332772 3.5276857,-5.224166 4.40594,-6.338848 5.0666222,-6.430584 0.3761423,-0.05223 1.1601415,0.348096 1.7422248,0.889599 0.5820833,0.541504 1.9314583,1.565039 2.998611,2.274524 2.88668874,1.919178 6.6112882,4.743609 9.8344458,7.45763 2.6345232,2.218369 2.8655542,2.518146 2.8655542,3.718243 0,1.818276 -0.9385939,5.233437 -1.7524204,6.376355 -0.3742831,0.525632 -0.9903672,1.736475 -1.3690741,2.69076 -1.8977892,4.782139 -6.221243,12.326235 -10.618064,18.527701 -0.4953952,0.698725 -1.4458667,2.0481 -2.1121581,2.998611 -0.6662913,0.950506 -1.3012913,1.807573 -1.411111,1.904587 -0.1098198,0.09701 -0.8283822,0.890759 -1.5968063,1.763889 -2.5468121,2.89383 -10.1321161,8.34322 -14.3665851,10.32117 -5.257303,2.45571 -13.120991,3.52052 -20.043224,2.71401 -3.720324,-0.43345 -9.384806,-1.52328 -11.926517,-2.29461 -1.813976,-0.55049 -3.245227,-0.65895 -3.238838,-0.24543 0.0021,0.14552 0.796,1.04801 1.763888,2.00554 0.967892,0.95753 1.759801,1.93028 1.759801,2.16167 0,0.23138 0.224821,0.60729 0.4996,0.83534 0.441724,0.36659 2.253421,2.99428 4.638234,6.72731 0.721995,1.13016 2.521246,4.79308 7.278034,14.81666 0.96682,2.0373 1.966059,4.18042 2.220539,4.7625 0.25448,0.58209 0.899996,2.01084 1.434475,3.175 0.534483,1.16417 1.17777,2.83105 1.42953,3.70417 0.251756,0.87313 0.96187,3.175 1.578024,5.11528 1.73258,5.45588 2.922207,10.48284 3.506357,14.81666 0.209222,1.55223 0.547829,3.77473 0.752465,4.93889 0.432435,2.46014 0.898775,15.2102 0.757572,20.7126 -0.05334,2.0786 -0.333318,5.49172 -0.622173,7.58472 -0.288858,2.093 -0.577014,4.75796 -0.640351,5.92212 -0.06334,1.16417 -0.382051,2.72517 -0.708251,3.46888 -0.557435,1.27092 -0.662365,1.3374 -1.745379,1.1058 -0.633758,-0.13553 -1.571155,-0.48999 -2.083103,-0.78769 -0.511951,-0.29769 -1.201437,-0.43742 -1.532198,-0.31049 -0.505651,0.19404 -0.563588,0.52534 -0.363958,2.0813 0.130581,1.0178 0.386602,2.43462 0.568936,3.1485 0.182333,0.71388 0.504306,4.04763 0.7155,7.40833 0.21119,3.36071 0.505012,7.85662 0.652935,9.99093 0.28938,4.17537 0.179945,19.32865 -0.160507,22.225 -0.114035,0.97014 -0.276849,2.95451 -0.361809,4.40972 -0.64633,17.05206 -7.049196,35.21454 -10.099325,53.22686 -0.206904,1.23772 -0.678081,3.1279 -1.047059,4.20035 -0.783621,2.27764 -0.862689,4.06329 -0.204124,4.60985 1.334093,1.10723 8.113222,0.66725 12.344943,-0.80119 2.866513,-0.99469 5.275132,-2.1069 6.628483,-3.06081 1.085405,-0.76503 1.821106,-0.40029 2.413853,1.19666 0.762392,2.05405 -1.157135,4.34097 -6.013471,7.16449 -1.242232,0.72224 -2.385557,1.52517 -2.540719,1.78432 -0.155162,0.25911 -0.442348,0.47113 -0.638189,0.47113 -0.195845,0 -1.656394,0.62195 -3.245665,1.38208 -3.373,1.61325 -8.087896,3.55184 -10.783859,4.43385 -1.378232,0.45092 -2.439504,0.55919 -3.880556,0.39589 -1.900057,-0.2153 -8.882118,-2.24483 -11.209044,-3.25826 -0.611406,-0.26624 -1.844287,-0.48411 -2.739735,-0.48411 -1.545492,0 -1.656814,0.0671 -2.194349,1.32291 -1.01249,2.36541 -1.031303,2.38326 -2.467282,2.34277 -2.397858,-0.0676 -8.728946,-0.81937 -10.043357,-1.1925 -0.969599,-0.27524 -1.411351,-0.67349 -1.866364,-1.68254 -0.532048,-1.17986 -0.568783,-2.26952 -0.341852,-10.14031 0.260315,-9.02861 0.340276,-24.83894 0.168596,-33.33644 -0.08823,-4.36672 -0.583201,-12.77792 -1.442826,-24.51806 -0.423107,-5.77852 -1.564082,-15.0606 -2.276619,-18.52083 -1.217284,-5.91138 -2.023396,-9.7301 -2.159617,-10.23055 -0.07922,-0.29105 -0.696966,-2.59292 -1.372768,-5.11528 -1.19465,-4.45892 -1.62119,-5.77939 -3.532604,-10.93611 -1.497234,-4.03934 -4.553599,-9.68495 -5.394961,-9.96541 -0.79031,-0.26343 -7.43774,6.87675 -8.62083,9.25985 -0.74707,1.50484 -3.07501,5.89753 -3.45871,6.52639 -7.02282,6.81531 -5.1895,18.68043 -10.28566,25.98317 -1.30835,1.60253 -5.10191,23.3109 -5.21967,29.86924 -0.0272,1.51765 -0.19801,3.54214 -0.37946,4.49891 -0.18144,0.95676 -0.34568,2.65193 -0.36497,3.76706 -0.0193,1.1151 -0.17408,3.61495 -0.34399,5.55523 -0.7819,8.92926 -0.72828,15.24328 0.24568,28.92777 0.13809,1.94028 0.26026,4.86523 0.27148,6.49994 l 0.0204,2.97211 -1.05833,0.29429 c -1.31214,0.36484 -7.0721,1.24555 -9.77174,1.49408 -1.85372,0.17068 -2.06709,0.11335 -2.73403,-0.73451 z m 11.09466,-72.79118 c 0.11992,-0.19403 -0.0388,-0.35278 -0.35277,-0.35278 -0.31395,0 -0.4727,0.15875 -0.35278,0.35278 0.11991,0.19403 0.27866,0.35278 0.35278,0.35278 0.0741,0 0.23286,-0.15875 0.35277,-0.35278 z m -56.79722,-41.8239 c -3.74957,-1.87487 -5.77755,-4.03469 -7.93135,-8.44693 -2.25235,-4.61414 -3.31235,-7.88139 -4.23473,-13.05278 -0.41528,-2.32833 -0.98498,-5.04695 -1.26599,-6.04137 -0.71915,-2.54484 -1.21554,-6.86852 -0.86349,-7.52115 0.58871,-1.09139 3.22122,-2.90321 6.00529,-4.13315 0.67909,-0.3 1.86972,-0.82761 2.64583,-1.17244 0.77611,-0.34484 1.80798,-0.73525 2.29305,-0.86758 0.48507,-0.13233 1.19945,-0.38137 1.5875,-0.55343 2.72761,-1.2094 5.52133,-1.69834 6.42448,-1.12438 0.23499,0.14934 0.76429,1.05972 1.17622,2.02307 0.41193,0.96335 1.12843,2.54529 1.59222,3.51543 0.46379,0.97014 1.09068,2.47827 1.39308,3.35139 0.3024,0.87313 0.79728,2.28659 1.09973,3.14103 0.71965,2.03308 2.6922,5.05353 4.77763,7.31569 1.93933,2.10368 2.39088,3.37979 1.65896,4.68828 -0.75024,1.34122 -1.83741,1.3144 -3.75299,-0.0926 -2.33964,-1.71847 -6.14366,-6.59632 -7.40562,-9.49615 -0.47648,-1.09487 -0.96196,-1.24486 -1.28708,-0.39763 -0.27612,0.71956 0.0567,7.21098 0.5494,10.71638 0.20454,1.45521 1.22893,5.28397 2.27641,8.50836 1.04748,3.22439 1.90451,6.43349 1.90451,7.13134 0,1.47627 -0.37223,1.74705 -3.175,2.30969 -3.53742,0.71011 -4.38413,0.74092 -5.46806,0.19893 z m 74.25972,-164.420673 c -1.26118,-0.27831 -3.02597,-0.646723 -3.92176,-0.818699 -5.56531,-1.068422 -12.52331,-4.31306 -15.19664,-7.086454 -0.32866,-0.340964 -0.72858,-0.675824 -0.8887,-0.744129 -0.41058,-0.175136 -3.27623,-3.641312 -3.27623,-3.962791 0,-0.14598 -0.38126,-0.770763 -0.84726,-1.388406 -1.08998,-1.44471 -1.88517,-3.385774 -2.15963,-5.271714 -0.3059,-2.101994 -0.95599,-2.934056 -3.08047,-3.942792 -2.44473,-1.160794 -3.19478,-1.85451 -4.25075,-3.931468 -1.97565,-3.885872 -2.09371,-4.295091 -1.95086,-6.761706 0.18168,-3.137097 1.31285,-5.471039 3.34625,-6.904315 1.34388,-0.947251 1.53439,-1.245179 1.53439,-2.399538 0,-2.127173 -0.39559,-2.291944 -6.05549,-2.52222 -5.42105,-0.22056 -6.73319,-0.515751 -7.34103,-1.6515151 -0.57586,-1.076004 0.0633,-1.9366935 1.82142,-2.4529061 0.83651,-0.2456039 2.31468,-0.7297349 3.28482,-1.0758452 0.97014,-0.3461102 2.71639,-0.927167 3.88056,-1.2912371 1.16416,-0.3640702 2.22926,-0.8202789 2.36687,-1.0137916 0.28659,-0.4029992 0.0611,-3.57525441 -0.48184,-6.7774957 -0.20526,-1.2106839 -0.25922,-3.1493106 -0.12085,-4.341523 0.30557,-2.6327663 0.76974,-3.1196492 5.01822,-5.2637302 1.70245,-0.859176 4.12725,-2.221819 5.38843,-3.028092 5.65236,-3.472728 11.65392,-7.088925 17.21015,-9.856413 5.35398,-2.659468 7.10262,-3.361002 9.24818,-3.710245 3.78407,-0.615947 4.63249,-0.450586 5.37278,1.047171 1.41002,2.852741 3.04398,6.610583 3.37465,7.761111 0.19518,0.679097 1.00278,3.298472 1.794678,5.820833 0.791894,2.522361 1.57129,5.1417358 1.731991,5.820833 l 0.292177,1.2347221 4.035612,0.2311329 c 4.903967,0.2808676 7.400237,1.1038699 9.056363,2.9858193 1.244049,1.4136863 1.877053,3.56741566 1.175864,4.00077491 -0.232533,0.14371461 -2.260751,0.4576727 -4.507152,0.69768858 -2.246397,0.24001587 -4.473137,0.61352991 -4.948311,0.83003311 -0.857307,0.3906132 -0.862179,0.4209027 -0.633649,3.9379841 0.126665,1.9493899 0.391012,3.9619376 0.587431,4.4723329 0.340187,0.8839551 1.712415,1.6954751 3.834232,2.2675181 0.48507,0.130775 1.397882,0.6243 2.028473,1.096726 0.979819,0.734056 1.146527,1.07757 1.146527,2.362496 0,1.593236 -0.571461,2.347136 -3.086805,4.072258 -1.041354,0.714202 -1.147558,0.954024 -1.157746,2.614394 -0.01598,2.602787 -0.370304,2.907661 -3.700314,3.183883 -5.979386,0.495977 -11.336181,2.312342 -12.773801,4.331292 -0.92727,1.302219 -1.61132,3.81944 -1.31131,4.825372 0.38125,1.278269 2.3866,4.033548 3.35538,4.610156 0.96047,0.571669 2.1596,0.902593 4.278547,1.180758 1.952773,0.256349 4.558683,-0.769041 6.511241,-2.562087 4.28904,-3.938655 4.319185,0.361181 0.06795,9.691553 -1.099114,2.412266 -4.042918,6.591013 -5.34029,7.580566 -1.399558,1.067498 -3.609458,2.033389 -4.423248,1.933292 -0.32321,-0.03976 -1.03455,0.111277 -1.58076,0.335633 -1.32854,0.545701 -5.8731,0.458431 -8.70829,-0.16722 z M 9.2760961,52.899392 C 7.0438807,50.527131 4.8812401,48.632051 3.1463954,47.528061 1.6720701,46.589856 -0.22864358,45.206702 -1.0774128,44.454386 -2.4417173,43.245117 -2.6206285,42.913287 -2.6206285,41.59212 c 0,-0.821929 0.1655938,-2.349524 0.3679895,-3.394653 0.2023957,-1.045129 0.4483135,-2.535234 0.546488,-3.311345 0.098175,-0.776111 0.3975488,-1.966736 0.6652754,-2.645833 0.26772306,-0.679097 0.72199146,-2.107847 1.00947712,-3.175 C 1.0452475,25.068769 1.6670571,22.802937 2.534139,19.716678 4.3980368,13.082379 5.0663884,7.1992523 4.488295,2.5153655 4.0576486,-0.97386402 4.1718216,-1.5438082 5.3945635,-2.0086917 6.8955482,-2.5793662 8.5362576,-1.5136034 9.1547617,0.43384271 10.415801,4.4043952 10.609324,9.5662041 9.6758286,14.332013 c -0.4752517,2.426314 -0.4469977,2.471988 2.9091994,4.703184 2.738593,1.820611 5.4982,4.741601 7.076038,7.489842 1.017855,1.772867 1.071834,2.062391 1.04468,5.603063 -0.01577,2.053477 -0.126608,4.30784 -0.246348,5.009698 -0.494929,2.900991 -1.953168,8.581316 -2.652994,10.334279 -0.412345,1.032863 -1.195346,3.200424 -1.740006,4.816803 -1.034916,3.071308 -1.831012,4.298907 -2.77851,4.284539 -0.309474,-0.0047 -2.114782,-1.658007 -4.0117919,-3.674029 z M 74.886862,27.295615 C 73.674072,26.341633 72.603416,24.550242 72.353209,23.056376 72.240546,22.38371 71.842662,20.48397 71.469024,18.834734 71.095387,17.185498 70.510209,14.526436 70.168632,12.925707 69.468608,9.6452122 69.225728,9.4829661 67.264016,10.985429 c -2.984906,2.28612 -3.557835,2.557639 -5.396876,2.557639 -3.05956,0 -5.061366,-2.184315 -6.142732,-6.7027777 -0.842239,-3.5192827 -0.477157,-4.8165841 1.627184,-5.7821015 2.8647,-1.31438997 6.35,-4.9235287 6.35,-6.5756328 0,-0.5025072 -1.745076,-0.1559913 -3.74649,0.7439342 -0.799387,0.3594417 -2.712582,0.7585392 -4.251543,0.8868833 -2.68592,0.2239962 -2.820349,0.1994182 -3.352656,-0.6129831 -0.304997,-0.4654867 -0.667801,-1.5167292 -0.806234,-2.3360943 -0.285394,-1.6892375 -0.573776,-1.9627567 -2.025869,-1.9214711 -1.386071,0.039412 -3.802814,-0.8454002 -4.377845,-1.602803 -1.083991,-1.427777 -0.321328,-2.761238 1.973259,-3.450096 1.420237,-0.426371 2.844285,-1.652983 3.671118,-3.162134 0.694718,-1.268014 0.770477,-1.905074 0.747071,-6.282214 -0.02851,-5.330327 -0.120061,-5.567598 -2.118311,-5.489638 -1.895531,0.07395 -5.955185,-0.768487 -7.836178,-1.626126 -1.34008,-0.611007 -1.901053,-1.085892 -2.067864,-1.750522 -0.515853,-2.055318 1.76197,-2.832223 7.428996,-2.533829 2.137388,0.112539 4.086789,0.07826 4.332005,-0.07619 0.245215,-0.154446 0.502129,-1.084054 0.570918,-2.065797 0.12186,-1.739131 0.475533,-3.126645 2.185567,-8.574294 0.784412,-2.498894 0.990332,-3.511569 1.39882,-6.879166 0.379127,-3.125516 1.63969,-5.466528 3.449666,-6.406437 0.756599,-0.392896 1.68717,-0.463395 3.880556,-0.293986 1.58691,0.122566 3.202791,0.345363 3.590847,0.495104 0.694524,0.267998 8.75836,2.242808 13.934722,3.41257 4.743447,1.76253 9.400227,1.658502 14.282663,2.469212 l 0.980514,1.980823 c 0.53928,1.089453 1.057574,2.670374 1.151763,3.513157 0.09419,0.842784 0.3053,2.843319 0.469141,4.445634 0.183564,1.795194 0.51132,3.149132 0.85399,3.527778 0.540844,0.597627 0.606372,0.759336 0.606372,1.496422 0,0.211375 1.39671,0.352778 3.48458,0.352778 2.53194,0 3.59501,0.133061 3.88852,0.486709 1.01665,1.224993 -2.45175,4.355063 -5.74456,5.184204 -0.902294,0.227199 -1.724499,0.54895 -1.827125,0.715002 -0.102627,0.166053 -0.245594,2.045515 -0.317705,4.176579 -0.07211,2.131067 -0.215282,4.010864 -0.318167,4.177333 -0.270411,0.437536 -0.526838,1.944409 -0.940413,5.526249 -0.200445,1.735995 -0.930469,5.30787 -1.622281,7.9374999 -1.062464,4.0385186 -2.296234,10.8208333 -2.313647,12.7186436 -0.0028,0.2910416 -0.282335,2.8310415 -0.621474,5.6444441 -0.33914,2.8134024 -0.545945,5.6928314 -0.459571,6.3987324 0.192521,1.573406 -0.427112,2.651075 -2.945878,5.123487 -1.54784,1.519357 -5.69196,4.35278 -6.366305,4.35278 -0.105174,0 -0.618448,0.304211 -1.140612,0.676024 -0.825792,0.588017 -4.71837,2.146198 -5.36153,2.146198 -0.126079,0 -0.636182,-0.320104 -1.13356,-0.711341 z"
       style="fill:#000000;stroke-width:0.35277775" />
  </g>
</svg>
